<?xml version="1.0" encoding="UTF-8" standalone="no"?>
<svg width="189px" height="121px" viewBox="0 0 189 121" version="1.1" xmlns="http://www.w3.org/2000/svg" xmlns:xlink="http://www.w3.org/1999/xlink">
    <!-- Generator: Sketch 50 (54983) - http://www.bohemiancoding.com/sketch -->
    <title>home_mobile_icon</title>
    <desc>Created with Sketch.</desc>
    <defs>
        <linearGradient x1="49.999993%" y1="-7.0438799e-06%" x2="49.999993%" y2="100.160385%" id="linearGradient-1">
            <stop stop-color="#F74848" offset="0%"></stop>
            <stop stop-color="#BCA5A5" offset="100%"></stop>
        </linearGradient>
    </defs>
    <g id="home_mobile_icon" stroke="none" stroke-width="1" fill="none" fill-rule="evenodd">
        <g id="Group-25" transform="translate(18.000000, 21.000000)">
            <path d="M151.5,80.9002 L132.8,80.9002 C132.5,80.9002 132.3,80.5002 132.3,80.1002 C132.3,79.7002 132.5,79.3002 132.8,79.3002 L151.5,79.3002 C151.8,79.3002 152,79.7002 152,80.1002 C152,80.5002 151.8,80.9002 151.5,80.9002" id="Fill-1" fill="#BFA0A0"></path>
            <path d="M130.2002,80.9002 L119.0002,80.9002 C118.6002,80.9002 118.2002,80.5002 118.2002,80.1002 C118.2002,79.7002 118.6002,79.3002 119.0002,79.3002 L130.2002,79.3002 C130.6002,79.3002 131.0002,79.7002 131.0002,80.1002 C131.0002,80.5002 130.6002,80.9002 130.2002,80.9002" id="Fill-3" fill="#BFA0A0"></path>
            <path d="M116.1001,80.9002 L37.1001,80.9002 C36.7001,80.9002 36.3001,80.5002 36.3001,80.1002 C36.3001,79.7002 36.7001,79.3002 37.1001,79.3002 L116.2001,79.3002 C116.6001,79.3002 117.0001,79.7002 117.0001,80.1002 C117.0001,80.5002 116.6001,80.9002 116.1001,80.9002" id="Fill-5" fill="#BFA1A1"></path>
            <path d="M34.6001,80.9002 L22.7001,80.9002 C22.3001,80.9002 21.9001,80.5002 21.9001,80.1002 C21.9001,79.7002 22.3001,79.3002 22.7001,79.3002 L34.6001,79.3002 C35.0001,79.3002 35.4001,79.7002 35.4001,80.1002 C35.4001,80.5002 35.0001,80.9002 34.6001,80.9002" id="Fill-7" fill="#BFA1A1"></path>
            <path d="M20.7002,80.9002 L0.5002,80.9002 C0.2002,80.9002 0.0002,80.5002 0.0002,80.1002 C0.0002,79.7002 0.2002,79.3002 0.5002,79.3002 L20.6002,79.3002 C20.9002,79.3002 21.1002,79.7002 21.1002,80.1002 C21.1002,80.5002 20.9002,80.9002 20.7002,80.9002" id="Fill-9" fill="#BFA2A2"></path>
            <path d="M93.7998,68.2 L63.3998,68.2 L63.3998,74.4 C63.3998,76.2 64.8998,77.7 66.6998,77.7 L90.4998,77.7 C92.2998,77.7 93.7998,76.2 93.7998,74.4 L93.7998,68.2 Z" id="Fill-11" fill="#E6E6E6"></path>
            <path d="M96.7002,68.9998 L60.6002,68.9998 C60.2002,68.9998 59.8002,68.5998 59.8002,68.1998 C59.8002,67.7998 60.2002,67.3998 60.6002,67.3998 L96.7002,67.3998 C97.1002,67.3998 97.5002,67.7998 97.5002,68.1998 C97.5002,68.5998 97.1002,68.9998 96.7002,68.9998" id="Fill-13" fill="#C69595"></path>
            <path d="M78.7998,77.3001 C76.9998,77.3001 75.5998,75.9001 75.5998,74.1001 C75.5998,72.3001 76.9998,70.9001 78.7998,70.9001 C80.5998,70.9001 81.9998,72.3001 81.9998,74.1001 C81.9998,75.8001 80.5998,77.3001 78.7998,77.3001 M78.7998,71.2001 C77.2998,71.2001 75.9998,72.5001 75.9998,74.0001 C75.9998,75.5001 77.2998,76.8001 78.7998,76.8001 C80.2998,76.8001 81.5998,75.5001 81.5998,74.0001 C81.5998,72.5001 80.3998,71.2001 78.7998,71.2001" id="Fill-15" fill="#C39A9A"></path>
            <path d="M42.5,47.5999 C43.4,47.5999 44.1,46.8999 44.1,46.0999 L44.1,19.2999 C44.1,17.4999 42.7,16.0999 40.9,16.0999 L39.5,16.0999 L34.9,16.0999 C33.4,17.8999 31.2,18.8999 28.8,18.8999 C26.5,18.8999 24.2,17.8999 22.7,16.0999 L18.1,16.0999 L16.7,16.0999 C14.9,16.0999 13.5,17.4999 13.5,19.2999 L13.5,45.9999 C13.5,46.8999 14.2,47.5999 15,47.5999 C15.8,47.5999 17.9,46.8999 17.9,46.0999 L17.9,24.9999 C17.9,23.5999 17.6,22.3999 19,22.1999 L19.3,22.1999 C20.8,22.1999 22,23.3999 22,24.8999 L22,80.3999 C22,81.3999 22.8,82.2999 23.7,82.2999 L23.8,82.2999 C24.8,82.2999 26.5,81.9999 26.5,81.0999 L26.5,49.2999 C26.5,47.4999 30.6,45.4999 30.6,50.1999 L30.6,80.3999 C30.6,81.3999 32.9,82.2999 33.9,82.2999 L34,82.2999 C35,82.2999 35.8,81.4999 35.8,80.4999 L35.8,24.9999 C35.8,23.5999 36.8,22.3999 38.2,22.1999 L38.5,22.1999 C40,22.1999 39.8,23.3999 39.8,24.8999 L39.8,45.8999 C39.6,46.7999 41.7,47.4999 42.5,47.5999" id="Fill-17" fill="#F3CCCF"></path>
            <path d="M28.7998,0.3001 C26.0998,0.3001 23.8998,2.5001 23.8998,5.3001 L23.8998,7.8001 C23.8998,10.0001 25.6998,10.9001 27.8998,10.9001 L29.6998,10.9001 C31.8998,10.9001 33.6998,10.2001 33.6998,8.0001 L33.6998,5.2001 C33.6998,2.5001 31.4998,0.3001 28.7998,0.3001" id="Fill-19" fill="#F3CCCF"></path>
            <path d="M138.3999,47.7 C139.2999,47.7 139.9999,47 139.9999,46.2 L139.9999,19.4 C139.9999,17.6 138.5999,16.2 136.7999,16.2 L135.3999,16.2 L130.7999,16.2 C129.2999,18 127.0999,19 124.6999,19 C122.2999,19 120.0999,18 118.5999,16.2 L113.9999,16.2 L112.5999,16.2 C110.7999,16.2 109.3999,17.6 109.3999,19.4 L109.3999,46.1 C109.3999,47 110.0999,47.7 110.8999,47.7 C111.6999,47.7 113.7999,47 113.7999,46.2 L113.7999,25.1 C113.7999,23.7 113.4999,22.5 114.8999,22.3 L115.1999,22.3 C116.6999,22.3 117.8999,23.5 117.8999,25 L117.8999,80.5 C117.8999,81.5 118.6999,82.4 119.5999,82.4 L119.6999,82.4 C120.6999,82.4 122.3999,82.1 122.3999,81.2 L122.3999,49.5 C122.3999,47.7 126.4999,45.7 126.4999,50.4 L126.4999,80.6 C126.4999,81.6 128.7999,82.5 129.7999,82.5 L129.8999,82.5 C130.8999,82.5 131.6999,81.7 131.6999,80.7 L131.6999,25.1 C131.6999,23.7 132.6999,22.5 134.0999,22.3 L134.3999,22.3 C135.8999,22.3 135.6999,23.5 135.6999,25 L135.6999,46 C135.4999,47 137.5999,47.7 138.3999,47.7" id="Fill-21" fill="#F4A6AC"></path>
            <path d="M124.7002,0.4002 C122.0002,0.4002 119.8002,2.6002 119.8002,5.4002 L119.8002,7.9002 C119.8002,10.1002 121.6002,11.0002 123.8002,11.0002 L125.6002,11.0002 C127.8002,11.0002 129.6002,10.3002 129.6002,8.1002 L129.6002,5.4002 C129.6002,2.7002 127.4002,0.4002 124.7002,0.4002" id="Fill-23" fill="#F4A6AC"></path>
        </g>
        <g id="Group-28" transform="translate(29.000000, 18.000000)" fill="url(#linearGradient-1)">
            <path d="M17.8,0.4 C13.9,0.4 10.7,3.6 10.7,7.499 C10.7,11.4 13.9,14.6 17.8,14.6 C21.701,14.6 24.9,11.4 24.9,7.499 C24.9,3.6 21.701,0.4 17.8,0.4 Z M12.3,7.499 C12.3,4.4 14.7,1.9 17.8,1.9 C20.8,1.9 23.3,4.4 23.3,7.499 C23.3,10.6 20.8,13.1 17.8,13.1 C14.799,13.1 12.3,10.6 12.3,7.499 Z M106.6,7.7 C106.6,11.6 109.8,14.8 113.7,14.8 C117.6,14.8 120.8,11.5 120.8,7.7 C120.8,3.8 117.6,0.6 113.7,0.6 C109.8,0.6 106.6,3.8 106.6,7.7 Z M108.201,7.7 C108.201,4.6 110.6,2.1 113.7,2.1 C116.7,2.1 119.2,4.6 119.2,7.7 C119.2,10.8 116.7,13.3 113.7,13.3 C110.7,13.3 108.201,10.8 108.201,7.7 Z M55.7,12.8 C51.9,12.8 48.8,16 48.8,19.8 L48.8,76.9 C48.8,80.8 51.9,83.9 55.7,83.9 L79.5,83.9 C83.4,83.9 86.5,80.7 86.4,77 L86.4,19.8 C86.4,15.9 83.3,12.8 79.5,12.8 L55.7,12.8 Z M50.4,77 L50.4,19.8 C50.4,16.8 52.8,14.401 55.7,14.401 L79.5,14.401 C82.4,14.401 84.8,16.8 84.8,19.8 L84.8,77 C84.8,80 82.4,82.4 79.5,82.4 L55.7,82.4 C52.8,82.4 50.4,80 50.4,77 Z M22.5,15.9 L22.3,16.3 C21.3,17.9 19.5,18.8 17.7,18.8 C15.9,18.8 14.1,17.8 13.1,16.3 L12.9,15.9 L5.7,15.9 C2.6,15.9 0.1,18.4 0.1,21.5 L0.1,48.2 C0.1,50.3 1.8,52.1 3.9,52.2 C4.9,52.2 6,51.8 6.6,51.1 C7.4,50.401 7.8,49.4 7.8,48.3 L7.8,27.2 C7.8,27 7.9,26.8 8.1,26.8 C8.3,26.8 8.4,26.9 8.4,26.9 C8.4,26.9 8.5,27 8.5,27.1 L8.5,82.5 C8.5,84.8 10.299,86.7 12.5,86.8 C13.6,86.8 14.7,86.401 15.5,85.6 C16.4,84.8 16.8,83.7 16.8,82.6 L16.8,52.4 C16.8,51.9 17.201,51.4 17.7,51.4 C18,51.4 18.201,51.499 18.4,51.7 C18.6,51.9 18.7,52.1 18.7,52.4 L18.7,82.6 C18.7,84.9 20.5,86.8 22.701,86.9 L22.799,86.9 C23.9,86.9 25,86.5 25.5,85.8 C26.4,85 26.8,83.9 26.8,82.8 L26.8,27.3 C26.8,27.1 26.9,26.9 27.1,26.9 C27.299,26.9 27.4,27 27.4,27 C27.4,27 27.5,27.1 27.5,27.2 L27.5,48.2 C27.5,50.3 29.2,52.1 31.3,52.2 C32.3,52.2 33.3,51.8 34.1,51.1 C34.9,50.401 35.3,49.4 35.3,48.3 L35.3,21.5 C35.3,18.4 32.799,15.9 29.7,15.9 L22.5,15.9 Z M23.5,17.5 L29.9,17.5 C32.1,17.5 33.9,19.3 33.9,21.5 L33.9,48.1 C33.9,48.8 33.7,49.3 33.2,49.8 C32.7,50.3 32.1,50.5 31.5,50.5 C30.3,50.5 29.3,49.4 29.3,48.1 L29.3,27.1 C29.3,26.6 29.1,26.1 28.7,25.7 C28.299,25.3 27.7,25.1 27.201,25.2 C26.3,25.3 25.5,26.2 25.5,27.2 L25.5,82.8 C25.5,83.5 25.2,84.1 24.7,84.6 C24.2,85.1 23.5,85.3 22.799,85.3 C21.4,85.3 20.3,83.999 20.3,82.6 L20.3,52.4 C20.3,51.7 20,51.1 19.5,50.6 C19.1,50.1 18.5,49.9 17.8,49.9 L17.7,49.9 C16.4,49.9 15.3,51.1 15.3,52.499 L15.3,82.8 C15.3,83.5 15,84.1 14.5,84.6 C14,85.1 13.3,85.3 12.6,85.3 C11.2,85.3 10.1,83.999 10.1,82.6 L10.1,27.1 C10.1,26.6 9.9,26.1 9.5,25.7 C9.1,25.3 8.5,25.1 8,25.2 C7.1,25.3 6.3,26.2 6.3,27.2 L6.3,48.2 C6.3,48.9 6.1,49.5 5.6,49.9 C5.1,50.401 4.5,50.6 3.9,50.6 C2.7,50.6 1.7,49.5 1.7,48.2 L1.7,21.5 C1.7,19.3 3.5,17.5 5.7,17.5 L12.1,17.5 C13.5,19.3 15.5,20.3 17.8,20.3 C20.1,20.3 22.2,19.3 23.5,17.5 Z M118.299,16 L118.1,16.4 C117.1,18 115.3,18.901 113.5,18.901 C111.701,18.901 109.9,17.9 108.9,16.4 L108.7,16 L101.5,16 C98.4,16 95.9,18.5 95.9,21.6 L95.9,48.4 C95.9,50.5 97.6,52.301 99.7,52.4 C100.7,52.4 101.7,52 102.5,51.3 C103.3,50.6 103.701,49.6 103.701,48.5 L103.701,27.4 C103.701,27.2 103.799,27 104,27 C104.2,27 104.3,27.1 104.3,27.1 C104.3,27.1 104.4,27.2 104.4,27.3 L104.4,82.7 C104.4,85 106.2,86.9 108.4,87 C109.5,87 110.6,86.6 111.4,85.8 C112.3,85 112.701,83.9 112.701,82.8 L112.701,52.6 C112.701,52.1 113.1,51.6 113.601,51.6 C113.9,51.6 114.1,51.7 114.3,51.9 C114.5,52.1 114.6,52.301 114.6,52.6 L114.6,82.7 C114.6,85 116.4,86.9 118.6,87 L118.7,87 C119.8,87 120.8,86.6 121.3,85.9 C122.2,85.1 122.6,83.999 122.6,82.9 L122.6,27.4 C122.6,27.2 122.7,27 122.9,27 C123.1,27 123.2,27.1 123.2,27.1 C123.2,27.1 123.3,27.2 123.3,27.3 L123.3,48.3 C123.3,50.401 125,52.2 127.1,52.301 C128.1,52.301 129.1,51.9 129.899,51.2 C130.701,50.5 131.1,49.5 131.1,48.4 L131.1,21.6 C131.1,18.5 128.6,16 125.5,16 L118.299,16 Z M119.4,17.6 L125.8,17.6 C128,17.6 129.8,19.4 129.8,21.6 L129.8,48.2 C129.8,48.9 129.6,49.5 129.1,49.9 C128.6,50.401 128,50.6 127.4,50.6 C126.201,50.6 125.201,49.5 125.201,48.2 L125.201,27.2 C125.201,26.7 125,26.2 124.6,25.8 C124.2,25.4 123.6,25.2 123.1,25.3 C122.2,25.4 121.4,26.3 121.4,27.3 L121.4,82.9 C121.4,83.6 121.1,84.2 120.6,84.7 C120.1,85.2 119.4,85.4 118.7,85.4 C117.299,85.4 116.201,84.1 116.201,82.7 L116.201,52.499 C116.201,51.8 115.9,51.2 115.4,50.7 C115,50.2 114.4,50 113.7,50 C113.601,50 113.601,50 113.601,50.1 C112.3,50.1 111.2,51.3 111.2,52.7 L111.2,82.9 C111.2,83.6 110.9,84.2 110.4,84.7 C109.9,85.2 109.2,85.4 108.5,85.4 C107.1,85.4 106,84.1 106,82.7 L106,27.2 C106,26.7 105.8,26.2 105.4,25.8 C105,25.4 104.4,25.2 103.9,25.3 C103,25.4 102.2,26.3 102.2,27.3 L102.2,48.3 C102.2,49 102,49.6 101.5,50 C101,50.5 100.4,50.7 99.8,50.7 C98.6,50.7 97.6,49.6 97.6,48.3 L97.6,21.6 C97.6,19.4 99.4,17.6 101.6,17.6 L108,17.6 C109.4,19.4 111.4,20.4 113.7,20.4 C116,20.4 118.1,19.4 119.4,17.6 Z" id="Fill-26"></path>
        </g>
        <g id="Group-48" transform="translate(78.000000, 34.000000)">
            <polygon id="Fill-29" fill="#E6E6E6" points="3.4 55.2 33.8 55.2 33.8 11.6 3.4 11.6"></polygon>
            <path d="M10.2998,23.4002 L5.8998,23.4002 C5.4998,23.4002 5.1998,23.1002 5.1998,22.7002 L5.1998,18.1002 C5.1998,17.4002 5.6998,16.9002 6.3998,16.9002 L9.6998,16.9002 C10.3998,16.9002 10.8998,17.4002 10.8998,18.1002 L10.8998,22.7002 C10.9998,23.1002 10.6998,23.4002 10.2998,23.4002" id="Fill-31" fill="#F4A6AC"></path>
            <path d="M21,23.4002 L16.6,23.4002 C16.2,23.4002 15.9,23.1002 15.9,22.7002 L15.9,18.1002 C15.9,17.4002 16.4,16.9002 17.1,16.9002 L20.4,16.9002 C21.1,16.9002 21.6,17.4002 21.6,18.1002 L21.6,22.7002 C21.7,23.1002 21.4,23.4002 21,23.4002" id="Fill-32" fill="#F4A6AC"></path>
            <path d="M31.7002,23.4002 L27.3002,23.4002 C26.9002,23.4002 26.6002,23.1002 26.6002,22.7002 L26.6002,18.1002 C26.6002,17.4002 27.1002,16.9002 27.8002,16.9002 L31.1002,16.9002 C31.8002,16.9002 32.3002,17.4002 32.3002,18.1002 L32.3002,22.7002 C32.4002,23.1002 32.1002,23.4002 31.7002,23.4002" id="Fill-33" fill="#F4A6AC"></path>
            <path d="M10.2998,51.7 L5.8998,51.7 C5.4998,51.7 5.1998,51.4 5.1998,51 L5.1998,46.4 C5.1998,45.7 5.6998,45.2 6.3998,45.2 L9.6998,45.2 C10.3998,45.2 10.8998,45.7 10.8998,46.4 L10.8998,51 C10.9998,51.4 10.6998,51.7 10.2998,51.7" id="Fill-34" fill="#F4A6AC"></path>
            <path d="M21,51.7 L16.6,51.7 C16.2,51.7 15.9,51.4 15.9,51 L15.9,46.4 C15.9,45.7 16.4,45.2 17.1,45.2 L20.4,45.2 C21.1,45.2 21.6,45.7 21.6,46.4 L21.6,51 C21.7,51.4 21.4,51.7 21,51.7" id="Fill-35" fill="#F4A6AC"></path>
            <path d="M31.7002,51.7 L27.3002,51.7 C26.9002,51.7 26.6002,51.4 26.6002,51 L26.6002,46.4 C26.6002,45.7 27.1002,45.2 27.8002,45.2 L31.1002,45.2 C31.8002,45.2 32.3002,45.7 32.3002,46.4 L32.3002,51 C32.4002,51.4 32.1002,51.7 31.7002,51.7" id="Fill-36" fill="#F4A6AC"></path>
            <path d="M33.7998,11.5999 L3.3998,11.5999 L3.3998,3.7999 C3.3998,1.7999 4.9998,0.1999 6.9998,0.1999 L30.0998,0.1999 C32.0998,0.1999 33.6998,1.7999 33.6998,3.7999 L33.6998,11.5999 L33.7998,11.5999 Z" id="Fill-37" fill="#CCCCCC"></path>
            <path d="M36.7002,11.9998 L0.6002,11.9998 C0.4002,11.9998 0.2002,11.7998 0.2002,11.5998 C0.2002,11.3998 0.4002,11.1998 0.6002,11.1998 L36.7002,11.1998 C36.9002,11.1998 37.1002,11.3998 37.1002,11.5998 C37.1002,11.8998 36.9002,11.9998 36.7002,11.9998" id="Fill-38" fill="#E46767"></path>
            <path d="M30.3999,4.2 L13.5999,4.2 C13.3999,4.2 13.1999,4 13.1999,3.8 C13.1999,3.6 13.3999,3.4 13.5999,3.4 L30.3999,3.4 C30.5999,3.4 30.7999,3.6 30.7999,3.8 C30.7999,4 30.5999,4.2 30.3999,4.2" id="Fill-39" fill="#E86060"></path>
            <path d="M30.3999,6.8001 L13.5999,6.8001 C13.3999,6.8001 13.1999,6.6001 13.1999,6.4001 C13.1999,6.2001 13.3999,6.0001 13.5999,6.0001 L30.3999,6.0001 C30.5999,6.0001 30.7999,6.2001 30.7999,6.4001 C30.7999,6.6001 30.5999,6.8001 30.3999,6.8001" id="Fill-40" fill="#E86060"></path>
            <path d="M8.2002,8.5999 L8.2002,7.6999 C7.6002,7.6999 7.1002,7.4999 6.7002,7.2999 L6.9002,6.6999 C7.2002,6.8999 7.7002,7.0999 8.3002,7.0999 C9.0002,7.0999 9.4002,6.6999 9.4002,6.1999 C9.4002,5.6999 9.0002,5.3999 8.3002,5.0999 C7.3002,4.6999 6.7002,4.2999 6.7002,3.5999 C6.7002,2.8999 7.3002,2.2999 8.1002,2.1999 L8.1002,1.2999 L8.7002,1.2999 L8.7002,2.1999 C9.3002,2.1999 9.7002,2.3999 9.9002,2.4999 L9.7002,3.0999 C9.5002,2.9999 9.1002,2.7999 8.5002,2.7999 C7.8002,2.7999 7.5002,3.1999 7.5002,3.5999 C7.5002,4.0999 7.9002,4.2999 8.7002,4.5999 C9.7002,4.9999 10.2002,5.3999 10.2002,6.1999 C10.2002,6.8999 9.7002,7.5999 8.7002,7.6999 L8.7002,8.5999 L8.2002,8.5999 Z" id="Fill-41" fill="#E76363"></path>
            <path d="M9.8999,23.5999 L6.3999,23.5999 C5.2999,23.5999 4.3999,22.6999 4.3999,21.5999 L4.3999,18.0999 C4.3999,16.9999 5.2999,16.0999 6.3999,16.0999 L9.8999,16.0999 C10.9999,16.0999 11.8999,16.9999 11.8999,18.0999 L11.8999,21.5999 C11.8999,22.6999 10.9999,23.5999 9.8999,23.5999 Z M6.3999,16.4999 C5.4999,16.4999 4.7999,17.1999 4.7999,18.0999 L4.7999,21.5999 C4.7999,22.4999 5.4999,23.1999 6.3999,23.1999 L9.8999,23.1999 C10.7999,23.1999 11.4999,22.4999 11.4999,21.5999 L11.4999,18.0999 C11.4999,17.1999 10.7999,16.4999 9.8999,16.4999 L6.3999,16.4999 Z" id="Fill-42" fill="#DF6D6D"></path>
            <path d="M31.2998,23.5999 L27.7998,23.5999 C26.6998,23.5999 25.7998,22.6999 25.7998,21.5999 L25.7998,18.0999 C25.7998,16.9999 26.6998,16.0999 27.7998,16.0999 L31.2998,16.0999 C32.3998,16.0999 33.2998,16.9999 33.2998,18.0999 L33.2998,21.5999 C33.2998,22.6999 32.3998,23.5999 31.2998,23.5999 Z M27.7998,16.4999 C26.8998,16.4999 26.1998,17.1999 26.1998,18.0999 L26.1998,21.5999 C26.1998,22.4999 26.8998,23.1999 27.7998,23.1999 L31.2998,23.1999 C32.1998,23.1999 32.8998,22.4999 32.8998,21.5999 L32.8998,18.0999 C32.8998,17.1999 32.1998,16.4999 31.2998,16.4999 L27.7998,16.4999 Z" id="Fill-43" fill="#DF6D6D"></path>
            <path d="M20.6001,23.5999 L17.1001,23.5999 C16.0001,23.5999 15.1001,22.6999 15.1001,21.5999 L15.1001,18.0999 C15.1001,16.9999 16.0001,16.0999 17.1001,16.0999 L20.6001,16.0999 C21.7001,16.0999 22.6001,16.9999 22.6001,18.0999 L22.6001,21.5999 C22.6001,22.6999 21.7001,23.5999 20.6001,23.5999 Z M17.1001,16.4999 C16.2001,16.4999 15.5001,17.1999 15.5001,18.0999 L15.5001,21.5999 C15.5001,22.4999 16.2001,23.1999 17.1001,23.1999 L20.6001,23.1999 C21.5001,23.1999 22.2001,22.4999 22.2001,21.5999 L22.2001,18.0999 C22.2001,17.1999 21.5001,16.4999 20.6001,16.4999 L17.1001,16.4999 Z" id="Fill-44" fill="#DF6D6D"></path>
            <path d="M9.8999,51.9002 L6.3999,51.9002 C5.2999,51.9002 4.3999,51.0002 4.3999,49.9002 L4.3999,46.4002 C4.3999,45.3002 5.2999,44.4002 6.3999,44.4002 L9.8999,44.4002 C10.9999,44.4002 11.8999,45.3002 11.8999,46.4002 L11.8999,49.9002 C11.8999,51.0002 10.9999,51.9002 9.8999,51.9002 Z M6.3999,44.8002 C5.4999,44.8002 4.7999,45.5002 4.7999,46.4002 L4.7999,49.9002 C4.7999,50.8002 5.4999,51.5002 6.3999,51.5002 L9.8999,51.5002 C10.7999,51.5002 11.4999,50.8002 11.4999,49.9002 L11.4999,46.4002 C11.4999,45.5002 10.7999,44.8002 9.8999,44.8002 L6.3999,44.8002 Z" id="Fill-45" fill="#CC8C8C"></path>
            <path d="M31.2998,51.9002 L27.7998,51.9002 C26.6998,51.9002 25.7998,51.0002 25.7998,49.9002 L25.7998,46.4002 C25.7998,45.3002 26.6998,44.4002 27.7998,44.4002 L31.2998,44.4002 C32.3998,44.4002 33.2998,45.3002 33.2998,46.4002 L33.2998,49.9002 C33.2998,51.0002 32.3998,51.9002 31.2998,51.9002 Z M27.7998,44.8002 C26.8998,44.8002 26.1998,45.5002 26.1998,46.4002 L26.1998,49.9002 C26.1998,50.8002 26.8998,51.5002 27.7998,51.5002 L31.2998,51.5002 C32.1998,51.5002 32.8998,50.8002 32.8998,49.9002 L32.8998,46.4002 C32.8998,45.5002 32.1998,44.8002 31.2998,44.8002 L27.7998,44.8002 Z" id="Fill-46" fill="#CC8C8C"></path>
            <path d="M20.6001,51.9002 L17.1001,51.9002 C16.0001,51.9002 15.1001,51.0002 15.1001,49.9002 L15.1001,46.4002 C15.1001,45.3002 16.0001,44.4002 17.1001,44.4002 L20.6001,44.4002 C21.7001,44.4002 22.6001,45.3002 22.6001,46.4002 L22.6001,49.9002 C22.6001,51.0002 21.7001,51.9002 20.6001,51.9002 Z M17.1001,44.8002 C16.2001,44.8002 15.5001,45.5002 15.5001,46.4002 L15.5001,49.9002 C15.5001,50.8002 16.2001,51.5002 17.1001,51.5002 L20.6001,51.5002 C21.5001,51.5002 22.2001,50.8002 22.2001,49.9002 L22.2001,46.4002 C22.2001,45.5002 21.5001,44.8002 20.6001,44.8002 L17.1001,44.8002 Z" id="Fill-47" fill="#CC8C8C"></path>
        </g>
    </g>
</svg>