<svg height="658" viewBox="0 0 1167 658" width="1167" xmlns="http://www.w3.org/2000/svg" xmlns:xlink="http://www.w3.org/1999/xlink"><linearGradient id="a"><stop offset="0" stop-color="#f84848"/><stop offset="1" stop-color="#bca5a5"/></linearGradient><linearGradient id="b" x1="50%" x2="50%" xlink:href="#a" y1="0%" y2="100%"/><linearGradient id="c" x1="50%" x2="50%" xlink:href="#a" y1="0%" y2="85.19611%"/><linearGradient id="d" x1="50%" x2="50%" xlink:href="#a" y1="-17.911329%" y2="114.692017%"/><linearGradient id="e" x1="50%" x2="44.470683%" xlink:href="#a" y1="-26.038916%" y2="363.912775%"/><linearGradient id="f" x1="50%" x2="50%" xlink:href="#a" y1="-281.005907%" y2="111.073069%"/><linearGradient id="g" x1="50%" x2="100%" xlink:href="#a" y1="-116.231092%" y2="3022.14918%"/><linearGradient id="h" x1="50%" x2="50%" xlink:href="#a" y1="-100.047112%" y2="292.880877%"/><linearGradient id="i" x1="50%" x2="50%" xlink:href="#a" y1="-57.822299%" y2="376.731995%"/><linearGradient id="j" x1="40.042016%" x2="50%" xlink:href="#a" y1="-163.808208%" y2="229.267821%"/><linearGradient id="k" x1="50%" x2="50%" xlink:href="#a" y1="-169.961918%" y2="1193.02408%"/><mask id="l" fill="#fff"><path d="m48.3574314 57.2834646h48.3571267v-57.26360633h-48.3571267-48.35712675v57.26360633z" fill="none"/></mask><g fill="none" fill-rule="evenodd"><g transform="translate(55 40)"><ellipse cx="54" cy="42.029851" fill="#e6e6e6" fill-opacity=".5" rx="38.195122" ry="38.089552"/><path d="m2.85541463 38.3174328h18.33234147v-31.4173134h-18.33234147z" fill="#ccc"/><path d="m21.1877561 38.3174328h42.9431707v-31.4173134h-42.9431707z" fill="#f2f2f2"/><path d="m63.0124683 3.01656119h-59.03912196c-.61770732 0-1.11819512.49910448-1.11819512 1.11510448v2.76871642h61.27551218v-2.76871642c0-.616-.5004878-1.11510448-1.1181951-1.11510448z" fill="#e6e6e6"/><path d="m61.7853512 36.9674866h-36.5619512v-23.2897911c0-.6291343.5123415-1.1400597 1.1445366-1.1400597h34.272878c.6321952 0 1.1445366.5109254 1.1445366 1.1400597z" fill="#f4a6ac"/><path d="m87.551122 24.2059104h5.5053658v-6.3320597h-5.5053658z" fill="#e6e6e6"/><path d="m87.6314634 72.3458507h5.5053659v-6.3320597h-5.5053659z" fill="#e6e6e6"/><path d="m64.3088634 53.4514627h-60.73682925v-2.7122388c0-.6685373.54395122-1.2109851 1.21434146-1.2109851h59.52248779z" fill="#e6e6e6"/><path d="m21.2680976 85.3435821h43.0406341v-31.8927761h-43.0406341z" fill="#f2f2f2"/><path d="m3.57321951 85.3435821h17.69619509v-31.8927761h-17.69619509z" fill="#ccc"/><path d="m48.235039 67.8807045h-7.5204878c-.2212683 0-.4003902-.1786269-.4003902-.3979702v-9.6773731c0-.3756418.305561-.6803582.6822439-.6803582h6.9554634c.3766829 0 .6822439.3047164.6822439.6803582v9.6773731c0 .2193433-.179122.3979702-.3990732.3979702" fill="#f4a6ac"/><path d="m34.0865122 67.8807045h-7.5204878c-.2212683 0-.4003903-.1786269-.4003903-.3979702v-9.6773731c0-.3756418.305561-.6803582.6822439-.6803582h6.9554635c.3766829 0 .6822439.3047164.6822439.6803582v9.6773731c0 .2193433-.179122.3979702-.3990732.3979702" fill="#f4a6ac"/><path d="m15.9440927 60.7847522h-10.16912197c-.86531707 0-1.566-.6987462-1.566-1.5603582v-.9653731c0-.8629254.70068293-1.5616716 1.566-1.5616716h10.16912197c.864 0 1.5646829.6987462 1.5646829 1.5616716v.9653731c0 .861612-.7006829 1.5603582-1.5646829 1.5603582" fill="#dedee1"/><g fill="#f4a6ac"><path d="m47.7429805 82.6866388h-6.5366342c-.4925853 0-.8916585-.3979701-.8916585-.889194v-10.0267463h8.3199512v10.0267463c0 .4912239-.3990731.889194-.8916585.889194"/><path d="m33.4391707 82.6866388h-6.2258048c-.5781952 0-1.0470732-.4675821-1.0470732-1.0441791v-9.8717612h8.3199512v9.8717612c0 .576597-.468878 1.0441791-1.0470732 1.0441791"/><path d="m60.8439073 82.6866388h-6.4220488c-.5241951 0-.9482926-.4242388-.9482926-.9469851v-9.9689552h8.3199512v9.9689552c0 .5227463-.4254147.9469851-.9496098.9469851"/><path d="m61.3937854 67.8807045h-7.5204878c-.2212683 0-.4003903-.1786269-.4003903-.3979702v-9.6773731c0-.3756418.305561-.6803582.6822439-.6803582h6.9554634c.376683 0 .6822439.3047164.6822439.6803582v9.6773731c0 .2193433-.1791219.3979702-.3990731.3979702"/></g><path d="m76.2743415 54.5291343h29.1692195v-18.1739701h-29.1692195z" fill="#f2f2f2"/><path d="m95.2344 52.1392119h-8.9942927c-1.1893171 0-2.1547317-.9614328-2.1547317-2.1487761 0-1.1860298.9654146-2.1474627 2.1547317-2.1474627h8.9942927c1.1893171 0 2.1547317.9614329 2.1547317 2.1474627 0 1.1873433-.9654146 2.1487761-2.1547317 2.1487761" fill="#f94848"/><path d="m106.356293 33.7532537h1.209073v1.2057314 19.5701492 1.2057314h-1.209073-15.3136101v9.3227462h4.1487805v9.5893732h-9.6146341v-4.1386269h-18.3718537c-.0237073 0-.0447805-.0105075-.0671707-.0131343l-.1843903 17.2952836-66.91126826.1011343v-38.3955821c0-1.6273433 1.32760976-2.9499701 2.95814634-2.9499701h61.40063412c1.6318537 0 2.9594634 1.3226268 2.9594634 2.9499701l-.2094146 19.7093731c.018439-.0013134.035561-.0105074.054-.0105074h18.3718537v-4.1373135h4.1487805v-9.3227462h-14.6076586-1.2090732v-1.2057314-19.5701492-1.2057314h1.2090732 14.6076586v-8.6056119h-4.1487805v-4.1373134h-18.5496586v20.1375522l-67.0271707.0998209v-38.29444777c0-1.62865672 1.32892683-2.95259701 2.96209756-2.95259701h61.10297564c1.6331707 0 2.9620975 1.32394029 2.9620975 2.95259701v16.74364177h18.5496586v-4.1373134h9.6146341v9.5880597h-4.1487805v8.6056119zm-31.2383418 20.7758806h31.2383418v-19.5701492h-31.2383418zm11.7746342 18.8044179h6.9818048v-6.9625074h-6.9818048zm-65.2991708 13.2315224 44.0758537-.066985.342439-32.3997612h-44.4182927zm12.0470049-18.6548179h-6.6288293c-1.0049268 0-1.8215122-.8156418-1.8215122-1.817791v-8.3061493c0-1.0008358.8165854-1.8164776 1.8215122-1.8164776h6.6288293c1.0049268 0 1.8215122.8156418 1.8215122 1.8164776v8.3061493c0 1.0021492-.8165854 1.817791-1.8215122 1.817791zm-6.6288293-11.6173134c-.8258048 0-1.4975122.6698507-1.4975122 1.4933731v8.3061493c0 .8235224.6717074 1.4946865 1.4975122 1.4946865h6.6288293c.8258049 0 1.4975122-.6711641 1.4975122-1.4946865v-8.3061493c0-.8235224-.6717073-1.4933731-1.4975122-1.4933731zm6.8446976 27.5019701h-7.0608293c-.8850731 0-1.6055122-.7171343-1.6055122-1.6010746v-9.0810746c0-.8826269.7204391-1.6010746 1.6055122-1.6010746h7.0608293c.8850732 0 1.6055122.7184477 1.6055122 1.6010746v9.0810746c0 .8839403-.720439 1.6010746-1.6055122 1.6010746zm-7.0608293-11.9601194c-.7059512 0-1.2815122.5739702-1.2815122 1.2779702v9.0810746c0 .7053134.575561 1.2779702 1.2815122 1.2779702h7.0608293c.7059512 0 1.2815122-.5726568 1.2815122-1.2779702v-9.0810746c0-.704-.575561-1.2779702-1.2815122-1.2779702zm20.8839074-3.7924059h-6.6288293c-1.0049268 0-1.8215122-.8156418-1.8215122-1.8177911v-8.3048358c0-1.0021493.8165854-1.8177911 1.8215122-1.8177911h6.6288293c1.0049268 0 1.8215121.8156418 1.8215121 1.8177911v8.3048358c0 1.0021493-.8165853 1.8177911-1.8215121 1.8177911zm-6.6288293-11.6173135c-.8258049 0-1.4975122.6698508-1.4975122 1.4946866v8.3048358c0 .8235224.6717073 1.4946866 1.4975122 1.4946866h6.6288293c.8258048 0 1.4975121-.6711642 1.4975121-1.4946866v-8.3048358c0-.8248358-.6717073-1.4946866-1.4975121-1.4946866zm6.8446975 27.5026269h-7.0608292c-.8850732 0-1.6055122-.7171343-1.6055122-1.6010746v-9.0810747c0-.8826268.720439-1.6010746 1.6055122-1.6010746h7.0608292c.8850732 0 1.6055122.7184478 1.6055122 1.6010746v9.0810747c0 .8839403-.720439 1.6010746-1.6055122 1.6010746zm-7.0608292-11.9601194c-.7059512 0-1.2815122.5739701-1.2815122 1.2779701v9.0810747c0 .7053134.575561 1.2779701 1.2815122 1.2779701h7.0608292c.7059513 0 1.2815122-.5726567 1.2815122-1.2779701v-9.0810747c0-.704-.5755609-1.2779701-1.2815122-1.2779701zm20.1121024-3.925194h-6.6275122c-1.0049268 0-1.8215122-.8156418-1.8215122-1.8177911v-8.3048358c0-1.0021493.8165854-1.8177911 1.8215122-1.8177911h6.6275122c1.0049268 0 1.8228293.8156418 1.8228293 1.8177911v8.3048358c0 1.0021493-.8179025 1.8177911-1.8228293 1.8177911zm-6.6275122-11.6173135c-.8258049 0-1.4975122.6698508-1.4975122 1.4946866v8.3048358c0 .8235224.6717073 1.4946866 1.4975122 1.4946866h6.6275122c.8258049 0 1.4988293-.6711642 1.4988293-1.4946866v-8.3048358c0-.8248358-.6730244-1.4946866-1.4988293-1.4946866zm6.8446976 27.5026269h-7.0608293c-.8850732 0-1.6055122-.7171343-1.6055122-1.6010746v-9.0810747c0-.8826268.720439-1.6010746 1.6055122-1.6010746h7.0608293c.8850732 0 1.6055122.7184478 1.6055122 1.6010746v9.0810747c0 .8839403-.720439 1.6010746-1.6055122 1.6010746zm-7.0608293-11.9601194c-.7059512 0-1.2815122.5739701-1.2815122 1.2779701v9.0810747c0 .7053134.575561 1.2779701 1.2815122 1.2779701h7.0608293c.7059512 0 1.2815122-.5726567 1.2815122-1.2779701v-9.0810747c0-.704-.575561-1.2779701-1.2815122-1.2779701zm-52.76076584 7.2527761v7.3749254l19.60200004-.030209v-7.3447164zm16.75606834 2.873003h-14.23624395c-.17780488 0-.324-.1444776-.324-.3244179 0-.1786269.14619512-.3231045.324-.3231045h14.23624395c.1791219 0 .324.1444776.324.3231045 0 .1799403-.1448781.3244179-.324.3244179zm-16.75738541-19.9371224h19.60331711v-8.0579104h-19.60331711zm14.42379511-1.209803h-9.85829267c-1.37634147 0-2.49585366-1.1164179-2.49585366-2.4889552 0-1.3712239 1.11951219-2.4876418 2.49585366-2.4876418h9.85829267c1.3763415 0 2.4958537 1.1164179 2.4958537 2.4876418 0 1.3725373-1.1195122 2.4889552-2.4958537 2.4889552zm-9.85829267-4.6534925c-1.19721952 0-2.17053659.9719403-2.17053659 2.1645373 0 1.1939104.97331707 2.1658507 2.17053659 2.1658507h9.85829267c1.1985366 0 2.1718537-.9719403 2.1718537-2.1658507 0-1.192597-.9733171-2.1645373-2.1718537-2.1645373zm-4.56418537 22.2798925h19.60331704v-7.5601194h-19.60331704zm16.75606834-4.8415761h-14.23624395c-.17780488 0-.324-.1444776-.324-.3244179 0-.1786269.14619512-.3231045.324-.3231045h14.23624395c.1791219 0 .324.1444776.324.3231045 0 .1799403-.1448781.3244179-.324.3244179zm-4.1158537 2.9757134h-10.12039025c-.17780488 0-.324-.1444776-.324-.3244179 0-.1786268.14619512-.3231045.324-.3231045h10.12039025c.1791219 0 .324.1444777.324.3231045 0 .1799403-.1448781.3244179-.324.3244179zm-12.64153171-6.3417791h19.60331711v-7.5601194h-19.60331711zm16.75738541-4.9961671h-14.23624395c-.17780488 0-.324-.1444776-.324-.3244179 0-.1786269.14619512-.3231045.324-.3231045h14.23624395c.1791219 0 .324.1444776.324.3231045 0 .1799403-.1448781.3244179-.324.3244179zm-9.0548781 2.9757134h-5.18136585c-.17780488 0-.324-.1444776-.324-.3244179 0-.1786269.14619512-.3231045.324-.3231045h5.18136585c.17912196 0 .324.1444776.324.3231045 0 .1799403-.14487804.3244179-.324.3244179zm-6.04299512-20.5049194c-.91404878 0-1.65819512.743403-1.65819512 1.6562388v3.3085373h64.68409754l.0342439-3.3164179c0-.9049552-.7441463-1.6483582-1.6595122-1.6483582zm83.89360972-24.0042985h6.9818049v-6.9625075h-6.9818049zm-21.1838048 16.0015522v-32.28023878h-44.1930732v32.34459698zm-4.0497366-29.2794388c.9443414 0 1.7121951.7670448 1.7121951 1.7087761v23.3213135c0 .9417313-.7678537 1.7074627-1.7121951 1.7074627h-36.3117073c-.9443415 0-1.7121952-.7657314-1.7121952-1.7074627v-23.3213135c0-.9417313.7678537-1.7087761 1.7121952-1.7087761zm1.0536585 25.0300896v-23.3213135c0-.5792238-.4715122-1.0520597-1.0536585-1.0520597h-36.3117073c-.5821464 0-1.0536586.4728359-1.0536586 1.0520597v23.3213135c0 .5792239.4715122 1.0507462 1.0536586 1.0507462h36.3117073c.5821463 0 1.0536585-.4715223 1.0536585-1.0507462zm-61.39694633-2.9745314v7.3184478l19.54141463-.0288955v-7.2895523zm16.70654633 2.8661732h-14.20068291c-.1817561 0-.3292683-.1471045-.3292683-.3283582 0-.1812538.1475122-.3283583.3292683-.3283583h14.20068291c.1817561 0 .3292683.1471045.3292683.3283583 0 .1812537-.1475122.3283582-.3292683.3283582zm-16.70654633-19.9000836h19.54141463v-8.02244778h-19.54141463zm0 16.377194h19.54141463v-7.5312239h-19.54141463zm16.70654633-4.8193791h-14.20068291c-.1817561 0-.3292683-.1471045-.3292683-.3283582s.1475122-.3283582.3292683-.3283582h14.20068291c.1817561 0 .3292683.1471045.3292683.3283582s-.1475122.3283582-.3292683.3283582zm-4.1055805 2.9686209h-10.09536583c-.1817561 0-.32926829-.1471045-.32926829-.3283582s.14751219-.3283582.32926829-.3283582h10.09536583c.1817561 0 .3292683.1471045.3292683.3283582s-.1475122.3283582-.3292683.3283582zm-12.60096583-6.3371821h19.54141463v-7.5325373h-19.54141463zm16.70654633-4.9738388h-14.20068291c-.1817561 0-.3292683-.1471045-.3292683-.3283582s.1475122-.3283582.3292683-.3283582h14.20068291c.1817561 0 .3292683.1471045.3292683.3283582s-.1475122.3283582-.3292683.3283582zm-9.03301462 2.9686209h-5.16819512c-.1817561 0-.3292683-.1471045-.3292683-.3283582s.1475122-.3283582.3292683-.3283582h5.16819512c.1817561 0 .32926829.1471045.32926829.3283582s-.14751219.3283582-.32926829.3283582zm-6.02850732-20.44922985c-.90614634 0-1.64502439.73552239-1.64502439 1.63916418v3.29014926h64.39302443v-3.29014926c0-.90364179-.7388781-1.63916418-1.6450244-1.63916418zm75.74461464 41.58157615c-.3345366 0-.6045366-.2705672-.6045366-.6028657s.27-.6028657.6045366-.6028657h24.1972678c.334537 0 .604537.2705672.604537.6028657s-.27.6028657-.604537.6028657zm17.4704488 1.5834746c.3345366 0 .6045366.2705672.6045366.6028657s-.27.6028656-.6045366.6028656h-10.7433659c-.3345366 0-.6045366-.2705671-.6045366-.6028656s.27-.6028657.6045366-.6028657z" fill="url(#b)"/></g><g transform="translate(198 34)"><path d="m53 100c-27.6138683 0-50-22.3861317-50-50s22.3861317-50 50-50c27.614582 0 50 22.3861317 50 50s-22.385418 50-50 50z" fill="#e6e6e6" fill-opacity=".5"/><g transform="translate(0 4)"><path d="m24.1110674 50.7462457 14.7922686.1606399-.0880597 20.0398264-14.7042089-.001746v14.0280531c0 1.9276787 1.5780298 3.4921715 3.522388 3.4921715h59.8312836c1.6026866 0 2.9006866-1.2886113 2.9006866-2.8758033v-19.4059972l-26.4179105-.3003268-1.0866567-1.8264057v-28.0840436l1.0866567-1.7478318 26.4179105-.7368482v-17.7803915l-14.2427762-13.88487402-.2870746 3.49217155h-48.2021194c-1.9443582 0-3.522388 1.56449285-3.522388 3.49217154z" fill="#f7f7f7"/><path d="m78.2522853 15.4435344-.2518508-11.29717497 10.8260597 11.09113687z" fill="#f4a6ac"/><path d="m34.9052494 8.90601464c0 .84335942-.690388 1.52607896-1.5392835 1.52607896-.8506568 0-1.5410448-.68271954-1.5410448-1.52607896 0-.84335943.690388-1.52782506 1.5410448-1.52782506.8488955 0 1.5392835.68446563 1.5392835 1.52782506" fill="#f4a6ac"/><path d="m40.6256077 8.90601464c0 .84335942-.6903881 1.52607896-1.5392836 1.52607896-.8506567 0-1.5410448-.68271954-1.5410448-1.52607896 0-.84335943.6903881-1.52782506 1.5410448-1.52782506.8488955 0 1.5392836.68446563 1.5392836 1.52782506" fill="#ffccd0"/><path d="m43.8660286 14.1153574h-16.9479702c-.4491045 0-.8119104-.3614398-.8119104-.8049456 0-.4452518.3628059-.8066916.8119104-.8066916h16.9479702c.4491044 0 .8136716.3614398.8136716.8066916 0 .4435058-.3645672.8049456-.8136716.8049456" fill="#9b9b9b"/><path d="m48.1675688 17.7977481h-21.2488059c-.4491045 0-.8119105-.3614397-.8119105-.8049455 0-.4452519.362806-.8049456.8119105-.8049456h21.2488059c.4491045 0 .8119105.3596937.8119105.8049456 0 .4435058-.362806.8049455-.8119105.8049455" fill="#9b9b9b"/><path d="m37.32513 70.9465374h-31.45668652c-.9739403 0-1.76119403-.7822464-1.76119403-1.7460857v-14.16774c0-.9655854.78725373-1.7460858 1.76119403-1.7460858h31.45668652c.9721791 0 1.7611941.7805004 1.7611941 1.7460858v14.16774c0 .9638393-.789015 1.7460857-1.7611941 1.7460857" fill="#ffccd0"/><path d="m69.3811509 65.7082801c-1.9461194 0-3.522388-1.5644928-3.522388-3.4921715v-21.9290912c0-1.9294248 1.5762686-3.4921716 3.522388-3.4921716h44.0192841c1.944358 0 3.522388 1.5627468 3.522388 3.4921716v21.9290912c0 1.9276787-1.57803 3.4921715-3.522388 3.4921715z" fill="#ffcdd1"/><path d="m27.6454315 7.37818958c-.8488955 0-1.5410447.68446563-1.5410447 1.52782506 0 .84161334.6921492 1.52607896 1.5410447 1.52607896.8488956 0 1.5410448-.68446562 1.5410448-1.52607896 0-.84335943-.6921492-1.52782506-1.5410448-1.52782506" fill="#f84848"/><path d="m116.042226 61.7166239c0 1.4440129-1.185284 2.6191287-2.641791 2.6191287h-47.0168363c-1.4565075 0-2.641791-1.1751158-2.641791-2.6191287v-24.4975834c0-.0715895.0158507-.1379408.0211343-.2095303l26.1290746 15.2171375 26.1290744-15.2153914c.005284.0698434.021135.1361947.021135.2077842zm-26.555284 22.9680122c0 1.444013-1.1852836 2.6191287-2.6417911 2.6191287h-63.0278507c-1.4565075 0-2.6417911-1.1751157-2.6417911-2.6191287v-13.3645405h16.1501493c1.4565075 0 2.641791-1.1751157 2.641791-2.6191286v-16.5459088c0-1.4440129-1.1852835-2.6191287-2.641791-2.6191287h-16.1501493v-44.72074876c0-1.44401294 1.1852836-2.61912866 2.6417911-2.61912866h51.4251045v13.18294762c0 .4819196.3945074.8730428.880597.8730428h13.3639403v16.6017836h-23.1033433c-2.4286866 0-4.4029851 1.9573621-4.4029851 4.3652144v24.4975834c0 2.4061062 1.9742985 4.3652144 4.4029851 4.3652144h23.1033433zm-86.92373136-15.9836691v-16.5459088c0-.4819197.39626866-.8730429.88059702-.8730429h33.88185074c.4843284 0 .880597.3911232.880597.8730429v16.5459088c0 .4819197-.3962686.8730429-.880597.8730429h-33.88185074c-.48432836 0-.88059702-.3911232-.88059702-.8730429zm74.44038806-65.27741663 11.2346567 11.08240643h-11.2346567zm38.2954033 31.98305313-25.4069854 14.7945847-25.4069851-14.7945847c.4790448-.4958884 1.1518209-.8066917 1.8985672-.8066917h47.0168363c.746746 0 1.417761.3108033 1.898567.8066917zm-1.898567-2.5527774h-22.152299v-17.6459428h-.0140895c-.0334627-.1658782-.1162388-.3230259-.2430448-.4487441l-14.2462985-14.05424437c-.1673135-.16762424-.3909851-.22000681-.6217015-.22000681v-.03492172h-52.3057015c-2.4286866 0-4.4029851 1.95910824-4.4029851 4.36521444v44.72074876h-15.97050744c-1.45650747 0-2.64179105 1.1751158-2.64179105 2.6191287v16.5459088c0 1.4440129 1.18528358 2.6191286 2.64179105 2.6191286h15.97050744v13.3645405c0 2.4078523 1.9742985 4.3652145 4.4029851 4.3652145h63.0278507c2.4286866 0 4.4029851-1.9573622 4.4029851-4.3652145v-18.6027978h22.152299c2.428686 0 4.402985-1.9591082 4.402985-4.3652144v-24.4975834c0-2.4078523-1.974299-4.3652144-4.402985-4.3652144z" fill="url(#b)" transform="translate(0 .499485)"/><path d="m26.8268286 60.9269735c0-3.5916985-2.9359105-6.5024235-6.5586866-6.5024235-3.6210149 0-6.5569254 2.910725-6.5569254 6.5024235 0 3.5916984 2.9359105 6.5024234 6.5569254 6.5024234 3.6227761 0 6.5586866-2.910725 6.5586866-6.5024234" fill="#fff"/><path d="m80.9710093 58.7759704h-12.2684776c-.4491044 0-.8136716-.3614398-.8136716-.8049456 0-.4452518.3645672-.8066916.8136716-.8066916h12.2684776c.4491045 0 .8136717.3614398.8136717.8066916 0 .4435058-.3645672.8049456-.8136717.8049456" fill="#f84848"/><path d="m84.188887 61.661901h-15.4861792c-.4491044 0-.8136716-.3614398-.8136716-.8049456 0-.4452519.3645672-.8066916.8136716-.8066916h15.4861792c.4491044 0 .8136716.3614397.8136716.8066916 0 .4435058-.3645672.8049456-.8136716.8049456" fill="#f84848"/><g fill="#f94848"><path d="m33.4519121 29.0156845-1.4441791-2.4689653-5.7608656 9.853162h2.8883582z"/><path d="m40.6840793 31.472951-1.4529851 2.48468 1.4283284 2.442774h2.9042089z"/><path d="m37.8393987 26.5467192-4.3466269 7.4365793 1.4124776 2.4183288h.0528359l4.3202089-7.3911811z"/><path d="m34.9172256 26.4784472 1.4248059-2.44452-1.4248059-2.4462662-1.424806 2.4462662z"/><path d="m19.6237211 60.279001-.6393134-1.0965418-2.5554926 4.3721987h1.2786269z"/><path d="m22.833145 61.3687332-.644597 1.1017801.6340298 1.0843192h1.289194z"/><path d="m21.5707211 59.1826338-1.9285075 3.3001021.6269851 1.0720966h.0228955l1.9161791-3.279149z"/><path d="m20.2739539 59.1527757.6305075-1.0860654-.6305075-1.0843192-.6305074 1.0843192z"/><path d="m107.523506 57.7213346-.868268-1.485919-3.46603 5.9297073h1.736537z"/><path d="m111.876649 59.1997454-.873552 1.4946494.859463 1.4719503h1.747104z"/><path d="m110.165297 56.235241-2.615373 4.4752178.848896 1.4544895h.033462l2.599523-4.4472805z"/><path d="m108.405864 56.1943826.857702-1.4719503-.857702-1.4719503-.85594 1.4719503z"/></g></g></g><g transform="translate(60 193)"><path d="m67.9931068 105.237489c-28.9456659 0-52.4114652-23.5143632-52.4114652-52.5199338s23.4657993-52.51993364 52.4114652-52.51993364c28.946414 0 52.4114652 23.51436304 52.4114652 52.51993364s-23.4650512 52.5199338-52.4114652 52.5199338z" fill="#e6e6e6" fill-opacity=".5"/><path d="m99.488372 74.120301h27.27907v9.56391h-27.27907z" fill="#f7f7f7"/><g transform="translate(97.257516 67.457758)"><path d="m1.99883791 21.6578225h27.35156029v-4.5333528h-27.35156029z" fill="#e6e6e6"/><g transform="translate(0 .104422)"><path d="m.8671748 21.1186718h27.8848728v-4.839402h-27.8848728zm0-5.7088598h27.8848728v-10.24482096h-27.8848728zm19.7915304-11.1151482v-4.14731359h-.8671748v4.14731359h-19.7915304v17.6934657h29.6192224v-17.6934657z" fill="url(#c)"/><path d="m7.79867638 7.89343648c.80040234 0 1.44818191.65035442 1.44818191 1.45286395v.77207847c0 .6538323-.52810945.8529381-1.1802249.8529381h-.53678119c-.65211545 0-1.1802249-.2425787-1.1802249-.896411v-.72860557c0-.80250953.64864674-1.45286395 1.44904908-1.45286395z" fill="#f3a6ac"/><path d="m7.79867638 7.45018691c.91400224 0 1.65803821.74599477 1.65803821 1.66240327 0 .91640852-.74403597 1.66153382-1.65803821 1.66153382-.91400223 0-1.65803821-.7451253-1.65803821-1.66153382 0-.9164085.74403598-1.66240327 1.65803821-1.66240327m0 3.71693199c1.13079594 0 2.05000122-.9207558 2.05000122-2.05452872 0-1.13377294-.91920528-2.05539819-2.05000122-2.05539819-1.13079593 0-2.05000122.92162525-2.05000122 2.05539819 0 1.13377292.91920529 2.05452872 2.05000122 2.05452872" fill="#f84848"/><path d="m3.48780058 13.4820502v-.2660541c0-.668613.49354733-1.213763 1.10062632-1.213763h1.71716629c.35163276.5190663.90273434.8259849 1.49325663.8259849s1.14162386-.3069186 1.49246821-.8259849h1.71795467c.607079 0 1.1006264.54515 1.1006264 1.213763v.2660541h.3563632v-.2660541c0-.8859774-.6535954-1.6067579-1.4569896-1.6067579h-1.90480885l-.05282375.0869458c-.2814639.463421-.74978198.7390391-1.25279028.7390391-.50379672 0-.97290321-.2756181-1.25279028-.7390391l-.05282376-.0869458h-1.90480888c-.80418256 0-1.45698957.7207805-1.45698957 1.6067579v.2660541z" fill="#f84848"/><path d="m14.2745643 10.1123293h5.9505535v-1.50329246h-5.9505535z" fill="#9b9b9b"/><path d="m25.7289895 10.9651805h-11.0122527c-.2445433 0-.4422592.1991058-.4422592.4434234 0 .2443177.1977159.4434235.4422592.4434235h11.0122527c.2436761 0 .4422591-.1991058.4422591-.4434235 0-.2443176-.198583-.4434234-.4422591-.4434234" fill="#e36868"/><path d="m27.3490455 18.7291776h-7.7508084c-.2436761 0-.4413919.1982363-.4413919.4434234 0 .2443177.1977158.442554.4413919.442554h7.7508084c.2436761 0 .4422591-.1982363.4422591-.442554 0-.2451871-.198583-.4434234-.4422591-.4434234" fill="#f84848"/></g></g><path d="m1.71865517 92.0454378h11.03920693v-24.5735098h-11.03920693z" fill="#ccc"/><path d="m37.9440517 65.1222649h-35.55165515c-.37196552 0-.67334483.302003-.67334483.6747383v1.6753221h36.89834488v-1.6753221c0-.3727353-.3013794-.6747383-.6733449-.6747383" fill="#e6e6e6"/><path d="m12.7578621 92.0454378h25.8591379v-24.5735098h-25.8591379z" fill="#f2f2f2"/><path d="m37.2051172 91.2288375h-22.0165517v-19.6556289c0-.3806828.3085173-.6898385.6892069-.6898385h20.6381379c.3806897 0 .6892069.3091557.6892069.6898385z" fill="#f4a6ac"/><path d="m15.1887241 57.5996078h19.1296552v-11.9760097h-19.1296552z" fill="#f2f2f2"/><path d="m1.71865517 36.8376941h11.03920693v-24.5735099h-11.03920693z" fill="#ccc"/><path d="m12.7578621 36.8376941h25.8591379v-24.5735099h-25.8591379z" fill="#f2f2f2"/><path d="m37.9440517 9.91468012h-35.55165515c-.37196552 0-.67334483.30200308-.67334483.67473838v1.6753221h36.89834488v-1.6753221c0-.3727353-.3013794-.67473838-.6733449-.67473838" fill="#e6e6e6"/><g fill="#f4a6ac"><path d="m37.2051172 36.0213322h-22.0165517v-19.6556289c0-.3806828.3085173-.6898385.6892069-.6898385h20.6381379c.3806897 0 .6892069.3091557.6892069.6898385z"/><path d="m46.375931 27.5050057h3.3151724v-3.8314648h-3.3151724z"/><path d="m46.4243103 52.6602687h3.3151725v-3.8314648h-3.3151725z"/></g><path d="m27.6234759 56.0243441h-5.8983104c-.7804138 0-1.4133103-.6342064-1.4133103-1.4154405 0-.782029.6328965-1.4162353 1.4133103-1.4162353h5.8983104c.7804138 0 1.4125172.6342063 1.4125172 1.4162353 0 .7812341-.6321034 1.4154405-1.4125172 1.4154405" fill="#f94848"/><path d="m133.927255 15.6755469h-74.2091033v-2.8730025c0-1.0729055.8684483-1.9431511 1.9399311-1.9431511h70.3300342c1.07069 0 1.939138.8702456 1.939138 1.9431511z" fill="#e6e6e6"/><path d="m81.3398966 66.1192723h52.5875174v-50.4440433h-52.5875174z" fill="#f2f2f2"/><path d="m59.7183103 66.1192723h21.6215863v-50.4440433h-21.6215863z" fill="#ccc"/><path d="m114.287952 38.2284975h-9.18969c-.268862 0-.487759-.2185548-.487759-.488768v-16.7190468c0-.460952.372759-.8344821.833552-.8344821h8.498897c.46 0 .832758.3735301.832758.8344821v16.7190468c0 .2702132-.218103.488768-.487758.488768zm-17.2868796 0h-9.1896896c-.2688621 0-.4877587-.2185548-.4877587-.488768v-16.7190468c0-.460952.3727587-.8344821.8335518-.8344821h8.4988965c.46 0 .8327586.3735301.8327586.8344821v16.7190468c0 .2702132-.2181034.488768-.4877586.488768zm16.6857866 24.6281089h-7.987345c-.601173 0-1.088931-.4887681-1.088931-1.0911847v-18.761541h10.165207v18.761541c0 .6024166-.487759 1.0911847-1.088931 1.0911847zm-17.4767487 0h-7.6074482c-.7066552 0-1.2792759-.5738058-1.2792759-1.2811287v-18.571597h10.1652069v18.571597c0 .7073229-.5718276 1.2811287-1.2784828 1.2811287zm33.4837177 0h-7.846173c-.640034 0-1.159517-.5205579-1.159517-1.161917v-18.6908087h10.165207v18.6908087c0 .6413591-.51869 1.161917-1.159517 1.161917zm.671838-24.6281089h-9.18969c-.268862 0-.487759-.2185548-.487759-.488768v-16.7190468c0-.460952.372759-.8344821.833552-.8344821h8.498897c.46 0 .832758.3735301.832758.8344821v16.7190468c0 .2702132-.218103.488768-.487758.488768z" fill="#f4a6ac"/><path d="m74.8342276 24.6788931h-12.4255517c-1.0556207 0-1.9121725-.8583244-1.9121725-1.9161298v-1.1857593c0-1.0586001.8565518-1.9161297 1.9121725-1.9161297h12.4255517c1.0564138 0 1.9121724.8575296 1.9121724 1.9161297v1.1857593c0 1.0578054-.8557586 1.9161298-1.9121724 1.9161298" fill="#f2f2f2"/><path d="m2.30182414 19.4621086c-.10944828 0-.19827586-.0890114-.19827586-.1986862s.08882758-.1986862.19827586-.1986862h8.55124136c.1094483 0 .1982759.0890114.1982759.1986862s-.0888276.1986862-.1982759.1986862zm0 1.7959643c-.10944828 0-.19827586-.0890114-.19827586-.1986862 0-.1096747.08882758-.1986862.19827586-.1986862h3.11213793c.10944827 0 .19827586.0890115.19827586.1986862 0 .1096748-.08882759.1986862-.19827586.1986862zm0 3.2519369c-.10944828 0-.19827586-.0890114-.19827586-.1986862s.08882758-.1986862.19827586-.1986862h8.55124136c.1094483 0 .1982759.0890114.1982759.1986862s-.0888276.1986862-.1982759.1986862zm0 1.7959644c-.10944828 0-.19827586-.0890115-.19827586-.1986863 0-.1096747.08882758-.1986862.19827586-.1986862h6.07913793c.10944827 0 .19827586.0890115.19827586.1986862 0 .1096748-.08882759.1986863-.19827586.1986863zm0 3.2515394c-.10944828 0-.19827586-.0890114-.19827586-.1986862s.08882758-.1986862.19827586-.1986862h8.55124136c.1094483 0 .1982759.0890114.1982759.1986862s-.0888276.1986862-.1982759.1986862zm0 45.1386448c-.10944828 0-.19827586-.0890114-.19827586-.1986862s.08882758-.1986862.19827586-.1986862h8.55124136c.1094483 0 .1982759.0890114.1982759.1986862s-.0888276.1986862-.1982759.1986862zm0 1.7958848c-.10944828 0-.19827586-.0890114-.19827586-.1986862 0-.1096747.08882758-.1986862.19827586-.1986862h3.11213793c.10944827 0 .19827586.0890115.19827586.1986862 0 .1096748-.08882759.1986862-.19827586.1986862zm13.73448966-4.1801193c-.1094483 0-.1982759-.0890114-.1982759-.1986862s.0888276-.1986862.1982759-.1986862h8.5512414c.1094482 0 .1982758.0890114.1982758.1986862s-.0888276.1986862-.1982758.1986862zm0 1.7958849c-.1094483 0-.1982759-.0890114-.1982759-.1986862s.0888276-.1986862.1982759-.1986862h7.8390345c.1086551 0 .1982758.0890114.1982758.1986862s-.0896207.1986862-.1982758.1986862zm-13.73448966 5.6358534c-.10944828 0-.19827586-.0890114-.19827586-.1986862s.08882758-.1986862.19827586-.1986862h8.55124136c.1094483 0 .1982759.0890114.1982759.1986862s-.0888276.1986862-.1982759.1986862zm0 1.7962822c-.10944828 0-.19827586-.0890114-.19827586-.1986862 0-.1096747.08882758-.1986862.19827586-.1986862h6.07913793c.10944827 0 .19827586.0890115.19827586.1986862 0 .1096748-.08882759.1986862-.19827586.1986862zm0 3.2515395c-.10944828 0-.19827586-.0890114-.19827586-.1986862s.08882758-.1986862.19827586-.1986862h8.55124136c.1094483 0 .1982759.0890114.1982759.1986862s-.0888276.1986862-.1982759.1986862zm14.48270346-34.858541c-.2188966 0-.3965517-.1780228-.3965517-.3973724s.1776551-.3973724.3965517-.3973724h15.8692069c.2188965 0 .3965517.1780228.3965517.3973724s-.1776552.3973724-.3965517.3973724zm11.4574103 1.0431026c.2188966 0 .3965518.1780228.3965518.3973724s-.1776552.3973724-.3965518.3973724h-7.045931c-.2188966 0-.3965517-.1780228-.3965517-.3973724s.1776551-.3973724.3965517-.3973724z" fill="url(#d)"/><path d="m14.6298241 15.5116705c0-.3504824.2839311-.6357958.6344828-.6357958h21.865069c.3505517 0 .6352758.2853134.6352758.6357958v19.6747028c0 .3512772-.2847241.6365906-.6352758.6365906h-21.865069c-.3505517 0-.6344828-.2853134-.6344828-.6365906zm.6344828 20.7086658h21.865069c.5686551 0 1.0318275-.464131 1.0318275-1.033963v-19.6747028c0-.569832-.4631724-1.0331682-1.0318275-1.0331682h-21.865069c-.5686552 0-1.0310345.4633362-1.0310345 1.0331682v19.6747028c0 .569832.4623793 1.033963 1.0310345 1.033963z" fill="url(#e)"/><path d="m14.6298241 70.7457203c0-.3504825.2839311-.6357959.6344828-.6357959h21.865069c.3505517 0 .6352758.2853134.6352758.6357959v19.6747028c0 .3504824-.2847241.6365906-.6352758.6365906h-21.865069c-.3505517 0-.6344828-.2861082-.6344828-.6365906zm.6344828 20.7086658h21.865069c.5686551 0 1.0318275-.464131 1.0318275-1.033963v-19.6747028c0-.569832-.4631724-1.0331683-1.0318275-1.0331683h-21.865069c-.5686552 0-1.0310345.4633363-1.0310345 1.0331683v19.6747028c0 .569832.4623793 1.033963 1.0310345 1.033963z" fill="url(#f)"/><path d="m136.033897 14.8807226h-79.0422763v-4.0619408c0-1.12059017.9096896-2.03216248 2.0279655-2.03216248h75.0212418c1.118275 0 2.027172.91157231 2.027172 2.02500978zm-.445725 52.6558181-53.8509306.081064v-51.1473925h54.2831726zm-78.5957582-41.1733449h23.9517241v-9.8929836h-23.9517241zm0 10.0773643h23.9517241v-9.2826195h-23.9517241zm0 10.0773643h23.9517241v-9.2826195h-23.9517241zm0 10.0773644h23.9517241v-9.2826195h-23.9517241zm23.9517241 11.0231106-23.9525172.0365583v-10.2649241h23.9525172zm-29.9674138-17.0782714v-2.2904546h-2.4982758v-20.1745973h2.4982758v-2.5042409h4.4286897v24.9692928zm-4.9973448 2.7172325h4.2042414v-4.2129423h-4.2042414zm.0007931-25.9770292h4.2042414v-4.2129423h-4.2042414zm-6.4114483 39.8206892h-38.77562065v-1.990041c0-.5475792.44493103-.9926363.99058621-.9926363h36.79444824c.5456552 0 .9905862.4450571.9905862.9926363zm0 25.8904021-26.6125862.0397372v-25.1353944h26.6125862zm-38.77562065-20.2413559h11.76648275v-4.8543013h-11.76648275zm0 4.955234h11.76648275v-4.5578616h-11.76648275zm0 4.9886132h11.76648275v-4.5912408h-11.76648275zm11.76648275 10.3372459-11.76648275.0174844v-10.0257059h11.76648275zm1.8717241-35.4321083h20.4858621v-12.897119h-20.4858621zm25.1374138-45.7320013h-38.77562065v-1.99004098c0-.54757918.44493103-.99263628.99058621-.99263628h36.79444824c.5456552 0 .9905862.4450571.9905862.99263628zm0 25.8904021-26.6125862.0397372v-25.1353944h26.6125862zm-38.77562065-20.2413559h11.76648275v-4.8543013h-11.76648275zm0 4.955234h11.76648275v-4.5570668h-11.76648275zm0 4.9544392h11.76648275v-4.5570668h-11.76648275zm11.76648275 10.3714199-11.76648275.0174844v-9.9915319h11.76648275zm46.46-30.60005982c-1.993069 0-3.6141724 1.62445842-3.6141724 3.62165212v13.9573086h-4.4286897v-2.5034462h-5.7896551v2.5034462h-4.8252414v-14.89908118c0-.98627833-.8002414-1.7873811-1.7836897-1.7873811h-36.79444824c-.98344828 0-1.78368966.80110277-1.78368966 1.7873811v28.73399898l40.3618276-.0604006v-12.9797724h4.8252414v2.5042409h2.4982758v20.1745973h-2.4982758v2.5042409h-9.4767931v-6.051187-.7947449h-.7931035-20.4858621-.7931034v.7947449 12.8963242.7947448h.7931034 20.4858621.7931035v-.7947448-6.0503924h9.4767931v2.5034462h2.4982758v24.1348107h-7.3235172v-13.0759365c0-.9862783-.8002414-1.7873811-1.7836897-1.7873811h-36.79444824c-.98344828 0-1.78368966.8011028-1.78368966 1.7873811v28.733999l40.3618276-.0604006v-14.802917h8.1166207v-24.9295556h2.4982758v-2.7172325h4.4286897v17.9119588l81.7546892-.1231855.494104-58.3048643c0-1.9971937-1.62031-3.62165212-3.613379-3.62165212z" fill="url(#b)"/><path d="m59.718231 12.9866073c-.5305862 0-.9620344-.4323412-.9620344-.9640255s.4314482-.9640255.9620344-.9640255.9628276.4323412.9628276.9640255-.4322414.9640255-.9628276.9640255m0-2.3254234c-.7486896 0-1.3585862.6103641-1.3585862 1.3613979 0 .7502391.6098966 1.3613979 1.3585862 1.3613979.7494828 0 1.3593793-.6111588 1.3593793-1.3613979 0-.7510338-.6098965-1.3613979-1.3593793-1.3613979" fill="url(#g)"/><path d="m63.3638897 12.9866073c-.5305863 0-.9620345-.4323412-.9620345-.9640255s.4314482-.9640255.9620345-.9640255c.5305862 0 .9628275.4323412.9628275.9640255s-.4322413.9640255-.9628275.9640255m0-2.3254234c-.7486897 0-1.3585863.6103641-1.3585863 1.3613979 0 .7502391.6098966 1.3613979 1.3585863 1.3613979.7494827 0 1.3593793-.6111588 1.3593793-1.3613979 0-.7510338-.6098966-1.3613979-1.3593793-1.3613979" fill="url(#g)"/><path d="m67.009469 12.9866073c-.5305862 0-.9620345-.4323412-.9620345-.9640255s.4314483-.9640255.9620345-.9640255.9620344.4323412.9620344.9640255-.4314482.9640255-.9620344.9640255m0-2.3254234c-.7486897 0-1.3585862.6103641-1.3585862 1.3613979 0 .7502391.6098965 1.3613979 1.3585862 1.3613979.7486896 0 1.3585862-.6111588 1.3585862-1.3613979 0-.7510338-.6098966-1.3613979-1.3585862-1.3613979" fill="url(#g)"/><path d="m60.0729069 30.3071964c-.2188966 0-.3965517-.1780228-.3965517-.3973724s.1776551-.3973724.3965517-.3973724h17.3927586c.2188966 0 .3965517.1780228.3965517.3973724s-.1776551.3973724-.3965517.3973724zm0 3.6532035c-.2188966 0-.3965517-.1780228-.3965517-.3973724 0-.2193495.1776551-.3973724.3965517-.3973724h6.3297586c.2196897 0 .3965517.1780229.3965517.3973724 0 .2193496-.176862.3973724-.3965517.3973724zm0 6.6133101c-.2188966 0-.3965517-.1780228-.3965517-.3973724s.1776551-.3973724.3965517-.3973724h17.3927586c.2188966 0 .3965517.1780228.3965517.3973724s-.1776551.3973724-.3965517.3973724zm0 3.6528062c-.2188966 0-.3965517-.1780229-.3965517-.3973724 0-.2193496.1776551-.3973725.3965517-.3973725h12.3644828c.2188965 0 .3965517.1780229.3965517.3973725 0 .2193495-.1776552.3973724-.3965517.3973724zm0 6.61331c-.2188966 0-.3965517-.1780228-.3965517-.3973724 0-.2193495.1776551-.3973724.3965517-.3973724h17.3927586c.2188966 0 .3965517.1780229.3965517.3973724 0 .2193496-.1776551.3973724-.3965517.3973724z" fill="url(#h)"/><path d="m86.527269 20.9977145c0-1.0109154.820862-1.8334763 1.8304827-1.8334763h8.0983793c1.0080345 0 1.8288966.8225609 1.8288966 1.8334763v15.0349826c0 1.0117101-.8208621 1.834271-1.8288966 1.834271h-8.0983793c-1.0096207 0-1.8304827-.8225609-1.8304827-1.834271zm1.8304827 17.266626h8.0983793c1.2269311 0 2.2254483-1.0005837 2.2254483-2.2316434v-15.0349826c0-1.2302649-.9985172-2.2308487-2.2254483-2.2308487h-8.0983793c-1.2277241 0-2.2270345 1.0005838-2.2270345 2.2308487v15.0349826c0 1.2310597.9993104 2.2316434 2.2270345 2.2316434z" fill="url(#i)"/><path d="m86.527269 44.6518636c0-.8646824.7026896-1.5688263 1.5655862-1.5688263h8.6273793c.8621034 0 1.5647931.7041439 1.5647931 1.5688263v17.6004188c0 .8646824-.7026897 1.5688263-1.5647931 1.5688263h-8.6273793c-.8628966 0-1.5655862-.7041439-1.5655862-1.5688263zm1.5655862 19.5666175h8.6273793c1.0817931 0 1.9613448-.8821668 1.9613448-1.9661987v-17.6004188c0-1.0840319-.8795517-1.9661987-1.9613448-1.9661987h-8.6273793c-1.0825862 0-1.962138.8821668-1.962138 1.9661987v17.6004188c0 1.0840319.8795518 1.9661987 1.962138 1.9661987z" fill="url(#j)"/><path d="m103.680431 21.1607167c0-1.0109154.820862-1.834271 1.830483-1.834271h8.098379c1.008828 0 1.82969.8233556 1.82969 1.834271v15.0349825c0 1.0117102-.820862 1.8342711-1.82969 1.8342711h-8.098379c-1.009621 0-1.830483-.8225609-1.830483-1.8342711zm1.830483 17.266626h8.098379c1.226931 0 2.226241-1.0005837 2.226241-2.2316435v-15.0349825c0-1.230265-.99931-2.2316434-2.226241-2.2316434h-8.098379c-1.227724 0-2.227035 1.0013784-2.227035 2.2316434v15.0349825c0 1.2310598.999311 2.2316435 2.227035 2.2316435z" fill="url(#i)"/><path d="m103.680431 44.8147863c0-.8646824.70269-1.5688263 1.565586-1.5688263h8.62738c.862896 0 1.565586.7041439 1.565586 1.5688263v17.6004188c0 .8646823-.70269 1.5688263-1.565586 1.5688263h-8.62738c-.862896 0-1.565586-.704144-1.565586-1.5688263zm1.565586 19.5666175h8.62738c1.081793 0 1.962137-.8821668 1.962137-1.9661987v-17.6004188c0-1.084032-.880344-1.9661987-1.962137-1.9661987h-8.62738c-1.082586 0-1.962138.8821667-1.962138 1.9661987v17.6004188c0 1.0840319.879552 1.9661987 1.962138 1.9661987z" fill="url(#j)"/><path d="m119.891862 21.1607167c0-1.0109154.820862-1.834271 1.830483-1.834271h8.098379c1.008035 0 1.828897.8233556 1.828897 1.834271v15.0349825c0 1.0117102-.820862 1.8342711-1.828897 1.8342711h-8.098379c-1.009621 0-1.830483-.8225609-1.830483-1.8342711zm1.830483 17.266626h8.098379c1.226931 0 2.225448-1.0005837 2.225448-2.2316435v-15.0349825c0-1.230265-.998517-2.2316434-2.225448-2.2316434h-8.098379c-1.227724 0-2.227035 1.0013784-2.227035 2.2316434v15.0349825c0 1.2310598.999311 2.2316435 2.227035 2.2316435z" fill="url(#i)"/><path d="m119.891862 44.8147863c0-.8646824.70269-1.5688263 1.565586-1.5688263h8.62738c.862103 0 1.564793.7041439 1.564793 1.5688263v17.6004188c0 .8646823-.70269 1.5688263-1.564793 1.5688263h-8.62738c-.862896 0-1.565586-.704144-1.565586-1.5688263zm1.565586 19.5666175h8.62738c1.081793 0 1.961344-.8821668 1.961344-1.9661987v-17.6004188c0-1.084032-.879551-1.9661987-1.961344-1.9661987h-8.62738c-1.082586 0-1.962138.8821667-1.962138 1.9661987v17.6004188c0 1.0840319.879552 1.9661987 1.962138 1.9661987z" fill="url(#j)"/><path d="m62.5692 19.1640793h12.0456552c1.4624827 0 2.6521379 1.1921172 2.6521379 2.6576267 0 1.4655094-1.1896552 2.6584214-2.6521379 2.6584214h-12.0456552c-1.4632759 0-2.652931-1.192912-2.652931-2.6584214 0-1.4655095 1.1896551-2.6576267 2.652931-2.6576267m0 5.7134205h12.0456552c1.6813793 0 3.0486896-1.3709348 3.0486896-3.0557938 0-1.6840643-1.3673103-3.0549991-3.0486896-3.0549991h-12.0456552c-1.6813793 0-3.0494828 1.3709348-3.0494828 3.0549991 0 1.684859 1.3681035 3.0557938 3.0494828 3.0557938" fill="url(#k)"/></g><g transform="translate(252 199)"><ellipse cx="49.5" cy="50.769231" fill="#e6e6e6" fill-opacity=".5" rx="44.859375" ry="44.615385"/><path d="m30.2652281 68.098c.5398594 0 .977625.4338462.977625.9723077v28.4646154c0 .3107692-.2536875.5630769-.5661562.5630769h-27.80971878c-.31246875 0-.56615625-.2523077-.56615625-.5630769v-28.4107693c0-.5661538.46251563-1.0261538 1.0333125-1.0261538z" fill="#f2f2f2"/><path d="m30.2591953 3.76953846h-26.87695311c-.56925 0-1.03176563.46-1.03176563 1.02615385v29.18153849l8.56659374-.2076923h19.8092813c.3124687 0 .5661562-.2507693.5661562-.5615385v-28.41230769c0-.56615385-.4625156-1.02615385-1.0333125-1.02615385" fill="#f2f2f2"/><path d="m62.5653703 36.1178462h-27.0223594c-.4903593 0-.8863593.3938461-.8863593.8815384v28.5553846c0 .3107693.2536875.563077.5661562.563077h27.8097188c.3124687 0 .5661562-.2523077.5661562-.563077v-28.4107692c0-.5661538-.4625156-1.0261538-1.0333125-1.0261538" fill="#fff"/><path d="m49.0679578 42.8981538c-4.1610937 0-7.5348281 3.3553847-7.5348281 7.4938462v2.6184615c0 3.3953847 2.7689062 6.1492308 6.1844062 6.1492308h2.7023907c3.4139531 0 6.1828593-2.7538461 6.1828593-6.1492308v-2.6184615c0-4.1384615-3.3737343-7.4938462-7.5348281-7.4938462" fill="#fabec3"/><path d="m95.5286578 3.76953846h-26.8769531c-.56925 0-1.0317656.46-1.0317656 1.02615385v29.18153849l28.375875-.2076923c.3124687 0 .5661562-.2507693.5661562-.5615385v-28.41230769c0-.56615385-.4625156-1.02615385-1.0333125-1.02615385" fill="#f2f2f2"/><path d="m95.3487562 67.748h-26.9326406c-.5398594 0-.977625.4338462-.977625.9723077v28.4646154c0 .3107692.2536875.5630769.5661563.5630769h27.8097187c.3124688 0 .5661563-.2523077.5661563-.5630769v-28.4107693c0-.5676923-.4625157-1.0261538-1.0317657-1.0261538" fill="#f2f2f2"/><path d="m41.0556094 46.6632308h.0092812zm8.0128125-4.7476923c-1.0611563 0-2.0944688.1923077-3.0720938.5738461-2.2630781 1.0030769-3.7666406 2.4184616-4.5864844 4.3246154l-.0015468.0092308c-.4980938 1.0892307-.7502344 2.2523077-.7502344 3.456923 0 4.6107693 3.7728281 8.363077 8.4103594 8.363077 4.6375312 0 8.4088125-3.7523077 8.4088125-8.363077 0-4.6107692-3.7712813-8.3646153-8.4088125-8.3646153zm0 17.496923c-5.0644688 0-9.1837969-4.096923-9.1837969-9.1323077 0-1.3138461.2753437-2.5830769.81675-3.7723076.8987344-2.0892308 2.5337812-3.6369231 4.9979531-4.7276924 1.0828125-.4230769 2.2120313-.6338461 3.3690938-.6338461 5.0629218 0 9.18225 4.0969231 9.18225 9.1338461 0 5.0353847-4.1193282 9.1323077-9.18225 9.1323077z" fill="#f84848"/><path d="m47.6827313 53.7424615c-.2041875 0-.3990938-.08-.5445-.2230769l-2.3032969-2.2676923c-.3031875-.2984615-.3062813-.7876923-.0061875-1.0876923.3016406-.3030769.7904531-.3030769 1.0936406-.0061538l1.7278594 1.7 4.6545469-5.1523077c.2877187-.3153847.7765312-.343077 1.0920937-.06.3186563.2846153.3449531.7723077.0587813 1.0876923l-5.1975 5.7538461c-.1423125.1569231-.3418594.2492308-.5522344.2553846z" fill="#f84848"/><path d="m84.4663359 78.8041538c-2.3079375 2.7184616-9.5241093 9.5507693-12.4322343 12.1476924 1.1539687 1.8476923 2.1022031 1.616923 2.9143125 0l10.6239375-11.0646154z" fill="#f3a6ac"/><path d="m84.3077813 78.6509231c.4625156.7907692 1.1400468 1.3015384 2.0295 1.5353846l.7595156-.7538462c.5274844-.5246153 1.4772656-.3292307 2.0295.2184616.3418594.3415384.47025.8061538.47025 1.3338461l.9621562.9476923c.2335782.2307693.6125625.2292308.8461407-.0015384l1.16325-1.1584616-1.1617032-1.1584615c-2.388375-.0723077-2.475-2.5307692-2.475-2.5307692l-.2815312-.28c-1.4896406-1.4815385-2.9746406-2.0984616-4.2075-2.32.3294844.1938461.6759844.4230769 1.0441406.7107692.9683438.8015385.3418594 1.9446154.0649688 2.22z" fill="#cbcccb"/><path d="m92.4983297 80.2990769-1.3674375 1.3584616c-.0788906.0830769-.2119219.0846153-.3000938.0015384l-.8523281-.84c-.0278437-.6015384-.22275-1.0846154-.5785312-1.44-.6728907-.6692307-1.8717188-.9215384-2.5786407-.2184615l-.5955468.5923077c-.8770782-.2938462-1.4880938-.9046154-1.8547032-1.8630769l1.4540625-1.4461539c.2088282-.2092308.3202032-.4984615.3016407-.7923077-.0201094-.3-.1655157-.5769231-.4006407-.76-.8647031-.6723077-1.6675312-1.1015384-2.3342343-1.3769231 1.2978281.0261539 3.1339687.4769231 4.9840312 2.3184616l.9466875.9415384c.0433125.6184616.3263906 1.2507693.7626094 1.6861539.433125.4292308 1.0008281.6907692 1.6118437.7476923l.8012813.7969231c.0819844.08.0819844.2123077 0 .2938461m-18.5733281 11.5384616c-.51975.1123077-1.0178438-.063077-1.3581563-.4723077-.3403125-.4092308-.4161094-.9353846-.2088281-1.4184616l.56925-.5246154c2.4224062-2.2323076 7.9478437-7.3246153 11.0446875-10.5876923.3248437.56.7564219.9923077 1.2808125 1.3046154-3.14325 2.86-8.8543125 9.0076923-11.3277656 11.6984616m19.1209218-12.3769231-1.0116562-1.0061539-.1531406-.0061538c-.4748907-.0153846-.9188438-.2046154-1.2483282-.5323077-.3310312-.3276923-.5445-.8415385-.5429531-1.3061538v-.16l-1.1678906-1.1615385c-2.9669063-2.9523077-5.9508281-2.6492308-7.090875-2.3846154-.2258438.0523077-.3820781.2492308-.3758906.4830769.0061875.2292308.1701562.4184616.3944531.46.6264844.1153846 1.8980156.4815385 3.3984844 1.6507693.0850781.0661538.1036406.1538461.1051875.1984615.0030937.0446154-.0030938.1323077-.0757969.2046154l-1.7928281 1.7830769.07425.2230769c.0185625.0615385.0510468.1092308.07425.1661539-3.0287813 3.2276923-8.7584063 8.5061538-11.2318594 10.7830769l-.6249375.5769231-.0850781.1153846c-.3727969.7676923-.2660625 1.6523077.2784375 2.3076923.4176562.5015385 1.01475.7784615 1.65825.7784615.198 0 .4021875-.0276923.6048281-.0815384l.1098281-.0292308.0757969-.0815385c2.4904687-2.7107692 8.5325625-9.2215384 11.6123906-11.9661538.0711563.0230769.1314844.0630769.2057344.0815385l.2165625.056923.91575-.9107692c.3573281-.3584615 1.0828125-.1830769 1.485.22.2397656.24.3557812.5861539.3557812 1.06v.16l1.076625 1.06c.1902657.1892308.4424063.2861539.6945469.2861539s.5058281-.0969231.6976406-.2876924l1.3674375-1.3584615c.383625-.3830769.3820782-1.0030769 0-1.3830769" fill="#f84848"/><path d="m13.4793141 10.6415385c-2.0557969-.0015385-4.05745316 1.016923-5.26556254 3.4876923-.2784375.6630769-.43621875 1.3892307-.43621875 2.1523077v1.9723077c0 1.1492307.42229688 2.2015384 1.1199375 3.0107692l-2.18573437 1.62h5.72189066 2.0356875c2.5709062 0 4.6545468-2.0738462 4.6545468-4.6307692v-1.9723077c0-3.1076923-2.5245-5.6246154-5.6445468-5.64" fill="#fabec3"/><path d="m24.6412547 24.1421538c.7595156-.8246153 1.2235781-1.9230769 1.2235781-3.1292307v-1.8169231c0-2.7876923-1.9707187-5.2707692-4.7365312-5.7215385-.4841719-.0784615-.9575157-.0938461-1.4138438-.0553846.3774375.8446154.5909063 1.7784616.5909063 2.7615385 0 3.1892308-2.2058438 5.86-5.1804844 6.6046154.8925469 1.696923 2.6760937 2.8584615 4.7349844 2.8584615h1.348875 5.7218906s-2.536875-1.2338461-2.289375-1.5015385" fill="#f3a6ac"/><path d="m20.1924422 25.1172308c-1.8624375 0-3.5748281-.8138462-4.7829375-2.2061539 2.9313281-.8953846 5.110875-3.4969231 5.1681094-6.5984615.02475-1.3569231-.3495938-2.6523077-1.0364063-3.7846154.4300313-.0415385.8677969-.0584615 1.3071094-.0153846 2.8818281.2861538 5.2531875 2.5615384 5.6368125 5.4107692.2923594 2.1630769-.5259375 4.2907692-2.190375 5.6938462l-.3898125.3292307 1.7557031 1.1707693zm-12.20948439-2.6169231 1.75415625-1.1707692-.3898125-.3292308c-1.4293125-1.2046154-2.24760937-2.9584615-2.24915625-4.8138462l.00464063-.1615384c.08507812-3.4553846 2.87409375-6.16307695 6.34992186-6.16307695 1.7185781 0 3.328875.67230765 4.5338906 1.89230765 1.2050157 1.22 1.8500625 2.8338462 1.8175782 4.5461539-.0634219 3.4169231-3.0117657 6.2-6.5757657 6.2zm17.18887499 1.3661538c1.6118438-1.5661538 2.3852813-3.7892307 2.0805469-6.0446153-.4315781-3.1984616-3.09375-5.7523077-6.3282656-6.0738462-.6357657-.0646154-1.2761719-.0323077-1.8995625.0692308-.1593282-.2015385-.3016407-.4153846-.4857188-.6015385-1.3519687-1.36923076-3.1571719-2.12307692-5.086125-2.12307692-3.89967186 0-7.02745311 3.03692312-7.12335936 6.91230772l-.00464063.1753846c0 1.9169231.77653125 3.7353846 2.1470625 5.0661538l-1.53914062 1.0276923c-.20109375.1338462-.2908125.3769231-.21965625.6092308.06960937.2292308.27998437.3861539.52284375.3861539h5.99259371c.4547813 0 .8971875-.0523077 1.3287657-.1292308 1.3627968 1.7461538 3.4139531 2.7461538 5.6352656 2.7461538h6.2153437c.2428594 0 .4532344-.1553846.5228438-.3861538.0696094-.2292308-.0170156-.4753846-.2181094-.6076923z" fill="#f84848"/><path d="m62.5533047 34.8121538c.9172969 0 1.6628906.7415385 1.6628906 1.6538462v26.8230769c0 .9123077-.7455937 1.6538462-1.6628906 1.6538462h-26.9697656c-.9172969 0-1.6644375-.7415385-1.6644375-1.6538462v-26.9476923c0-.8446154.693-1.5292308 1.5406875-1.5292308zm32.7999375 31.6292308c.9188437 0 1.6644375.7415385 1.6644375 1.6553846v26.82c0 .9138462-.7455938 1.6569231-1.6644375 1.6569231h-26.9666719c-.9188437 0-1.6659844-.7430769-1.6659844-1.6507692l.1577813-26.6646154c.0046406-1 .829125-1.8169231 1.8376875-1.8169231zm-63.5115938 28.8261539v.0015384c0 .9123077-.7455937 1.6538462-1.6628906 1.6538462h-26.96821874c-.91729687 0-1.66289062-.7415385-1.66289062-1.6538462v-26.8230769c0-.9107692.74559375-1.6538462 1.66289062-1.6538462h26.82590624c.4903594 0 .952875.1892308 1.299375.5353847.3480469.3446153.5383125.8046153.5383125 1.2953846zm-30.23676559-64.3923077v-26.5492308c0-.91230769.74559375-1.65538462 1.6644375-1.65538462h26.96667189c.9188437 0 1.6659844.74307693 1.6659844 1.65538462v26.8215385c0 .9123077-.7471407 1.6538461-1.6659844 1.6538461h-26.69287501c-1.06889063 0-1.93823438-.8630769-1.93823438-1.9261538zm65.28895309-26.5492308c0-.91230769.7455938-1.65538462 1.6628907-1.65538462h26.9682187c.9172969 0 1.6644375.74307693 1.6644375 1.65538462v26.8215385c0 .9123077-.7471406 1.6538461-1.6644375 1.6538461h-27.7849687c-.4671563 0-.8461407-.3769231-.8461407-.8415384zm.8461407 30.0138462h27.7849687c1.7711719 0 3.2113125-1.4307693 3.2113125-3.1923077v-26.8215385c0-1.76153846-1.4401406-3.19384615-3.2113125-3.19384615h-26.9682187c-1.7711719 0-3.2097657 1.43230769-3.2097657 3.19384615v13.2953846h-16.2793125c-.4269375 0-.7734375.3446154-.7734375.7692308v14.6276923c0 .0907692.0232032.1738461.0510469.2553846h-12.8854687c-1.7015625 0-3.0875625 1.3769231-3.0875625 3.0676923v12.8876923h-14.3194219v-14.5215384c0-.1353847-.0433125-.2553847-.1051875-.3676923h12.288375c1.7711719 0 3.2128594-1.4307693 3.2128594-3.1923077v-26.8215385c0-1.76153846-1.4416875-3.19384615-3.2128594-3.19384615h-26.96667189c-1.77117187 0-3.2113125 1.43230769-3.2113125 3.19384615v26.5492308c0 1.9123077 1.56234375 3.4646154 3.48510938 3.4646154h13.06954691c-.061875.1123076-.1067344.2323076-.1067344.3676923v15.2907692c0 .4230769.3465.7692308.7734375.7692308h15.0928594v12.5215384c0 1.76 1.4416875 3.1923077 3.2113125 3.1923077h12.7106718v15.26h-14.8886718l.0154687-13.1153846c.0015469-.9015385-.3511406-1.7492308-.9915469-2.3861538-.6388593-.6353847-1.4896406-.9861539-2.3930156-.9861539h-26.82590624c-1.77117187 0-3.20976562 1.4323077-3.20976562 3.1923077v26.8230769c0 1.76 1.43859375 3.1923077 3.20976562 3.1923077h26.96821874c1.7711719 0 3.2097656-1.4323077 3.2097656-3.1923077l.0139219-11.9892307h15.6652031c.4284844 0 .7734375-.343077.7734375-.7692308v-16.0292308h12.7122188c1.7711719 0 3.2097656-1.4323077 3.2097656-3.1923077v-12.48h16.0240781v14.0938462h-13.0710937c-1.85625 0-3.3752813 1.5015384-3.3845625 3.3476923l-.1577813 26.6661538c0 1.7615385 1.4416875 3.1953846 3.2128594 3.1953846h26.9666719c1.7711719 0 3.2113125-1.4338461 3.2113125-3.1953846v-26.82c0-1.7615384-1.4401406-3.1938461-3.2113125-3.1938461h-12.0192188v-14.8630769c0-.4261539-.3465-.7692308-.7734375-.7692308h-16.7975156v-12.8046154c0-1.76-1.4385937-3.1923077-3.2097656-3.1923077h-12.7632656c.0293906-.0815385.0510468-.1646154.0510468-.2553846v-13.8584615h15.505875v12.8c0 1.3138461 1.0735313 2.38 2.3930157 2.38z" fill="url(#b)" transform="translate(0 .405692)"/><path d="m13.7300625 88.8536923v1.9092308c0 .9246154.7517813 1.6738461 1.6814531 1.6738461h2.0202188c.928125 0 1.6814531-.7492307 1.6814531-1.6738461v-1.9092308z" fill="#cccaca"/><path d="m22.3979766 80.2389231c0-3.2507693-2.6497969-5.8861539-5.9183438-5.8861539s-5.9183437 2.6353846-5.9183437 5.8861539c0 1.9153846.9203906 3.6169231 2.3450625 4.6907692v3.7153846h7.128v-3.7c1.4339531-1.0753846 2.363625-2.7830769 2.363625-4.7061538" fill="#fabec3"/><path d="m21.9991922 80.7947692h-.7687969c0-2.82-2.3063906-5.1138461-5.1418125-5.1138461v-.7646154c3.2592656 0 5.9106094 2.6369231 5.9106094 5.8784615" fill="#ef4a4a"/><path d="m11.9520844 85.0752308c-1.5051094-1.4092308-2.23987503-3.3969231-2.02331253-5.4538462.32020313-3.0061538 2.74570313-5.4292308 5.76675003-5.7615384.2521406-.0276924.5027343-.04.7502343-.04.7100157 0 1.4076563.1107692 2.0774532.3338461l.061875.0215385c2.388375.8215384 4.1023125 2.9615384 4.3668281 5.4476923.2196562 2.0553846-.5166563 4.0430769-2.0202188 5.4523077-.3542343.3307692-.556875.8061538-.556875 1.3061538v1.7507692c0 .183077-.1500468.3338462-.334125.3338462h-7.1976093c-.1840782 0-.3356719-.1507692-.3356719-.3338462v-1.7507692c0-.5-.2010938-.9753846-.5553281-1.3061538zm2.784375 6.6984615c-.0386719.0723077-.0448594.1553846-.0201094.2323077.0510469.1569231.2335781.2476923.3851719.1984615l4.455-1.4230769v.2476923c0 1.0107693-.8275782 1.8338462-1.843875 1.8338462h-2.5817344c-.9466875 0-1.7355938-.7153846-1.8330469-1.6446154l6.2586563-2v.9230769l-4.6421719 1.4830769c-.0773438.023077-.1407656.0784616-.1778906.1492308zm3.2731875-2.7-4.7241563 1.5092308v-1.5092308zm-.705375 4.3984615c-.12375.2846154-.4068282.4753847-.7254844.4753847-.3186563 0-.6001875-.1892308-.7254844-.4753847zm6.2571093-13.9138461c-.3495937-3.2907692-3.0040312-5.9415385-6.3066093-6.3030769l-.1082813-.0092308c-.5011875-.0507692-1.0116562-.0476923-1.5174844.0092308-3.3056718.3615384-5.95856245 3.0123077-6.3081562 6.3030769-.23821875 2.2461538.56770312 4.4184615 2.2120312 5.96.2304844.2169231.3635157.5307692.3635157.8630769v1.7507692c0 .4615385.3294843.843077.7780781.923077-.0046406 1.5784615-.0030938 1.9646154.0077344 2.0738461h-.0030938c.0541406 1.3138462 1.1307656 2.3430769 2.4517969 2.3430769h.1299375c.1454062.603077.6883594 1.0338462 1.3179375 1.0338462.6357656 0 1.1787187-.4353846 1.3210312-1.0446154 1.2792657-.0953846 2.2692657-1.1507692 2.2692657-2.4323077v-1.9661538c.4656093-.0615385.8182968-.4538462.8182968-.9307693v-1.7507692c0-.3323077.1330313-.6461538.3635157-.8630769 1.6443281-1.5415385 2.4487031-3.7138462 2.2104843-5.96z" fill="#f84848"/><g fill="#ef4a4a"><path d="m16.1942344 72.3703077h.7703437v-2.6830769h-.7703437z"/><path d="m6.04673437 80.9887692h2.69775v-.7646154h-2.69775z"/><path d="m24.4127813 80.9887692h2.69775v-.7646154h-2.69775z"/><path d="m10.5199875 75.1216923-1.90575-1.8953846.54295313-.5415385 1.90884377 1.8953846z"/><path d="m22.6366594 75.1216923-.5445-.5415385 1.9088437-1.8953846.5429531.5415385z"/></g><path d="m71.1426375 28.5667692v-12.5384615h12.610125v5.1353846l.0077344 4.0861539-3.3195938-.1153847v3.4323077z" fill="#fabec3"/><path d="m81.2214563 27.7749231v-2.3476923h2.2692656z" fill="#f3a6ac"/><path d="m83.7608062 14.7370769h-1.6597968v-5.13538459h12.610125v5.13538459l.0077343 4.0861539-3.1138593.1415384-.0278438 3.1753846h-7.8163594z" fill="#f3a6ac"/><path d="m92.1312563 21.4123077v-2.3507692h2.1238593z" fill="#f3a6ac"/><path d="m93.9409453 19.1587692-2.2197656 2.2092308v-2.2092308zm-10.1799844-4.7415384h-2.6095781v-5.7692308h13.2458906v9.8707692h-2.9993906c-.1778906 0-.32175.143077-.32175.32v2.98h-6.9934219v-7.0815384c0-.1769231-.1438593-.32-.32175-.32zm-2.9978437 13.3615384v-2.2092307h2.2197656l-1.1106562 1.1046153zm-10.5697969-12.72h13.2458906v9.8707693h-2.9993906c-.1763437 0-.32175.1430769-.32175.32v2.98h-9.92475zm24.8474531 3.78v-10.51230766c0-.17538462-.1438593-.32-.32175-.32h-13.8893906c-.1778906 0-.3232969.14461538-.3232969.32v6.09076926h-10.6347656c-.1778906 0-.3232969.1430769-.3232969.32v13.8138461c0 .1784616.1454063.32.3232969.32h10.56825c.0433125 0 .0835313-.0061538.12375-.0230769.0015469 0 .0015469 0 .0030938-.0015385.0386718-.0153846.0727031-.04.1036406-.0692307l3.3180469-3.3015385c.0293906-.0276923.0541406-.0646154.0696093-.1030769v-.0015385c.0170157-.0384615.02475-.08.02475-.1215384v-2.7892308h7.3151719c.0433125 0 .0835313-.0061539.12375-.0230769h.0015469c.0386719-.0169231.07425-.0415385.1036406-.0707693l3.3180469-3.3015384c.0309375-.0276923.0556875-.0646154.0711562-.1030769v-.0015385c.0170157-.0384615.02475-.08.02475-.1215385z" fill="#f84848"/><path d="m90.4303125 15.0690769c.0015469-.0369231-.0077344-.0707692-.0185625-.1046154-.0046406-.0092307-.0015469-.02-.0061875-.0292307-.0030937-.0061539-.0077344-.0076923-.0092812-.0123077-.0092813-.0169231-.0092813-.0384616-.0232032-.0553846l-1.46025-1.9c-.1098281-.1415385-.3109218-.1676923-.4516875-.06-.1423125.1076923-.1686093.3076923-.0603281.4492307l1.06425 1.3846154h-4.0327031c-.1794375 0-.3232969.1430769-.3232969.32 0 .0030769.0015469.0046154.0015469.0076923s-.0015469.0046154-.0015469.0076923c0 .1769231.1438594.3215385.3232969.3215385h4.0327031l-1.06425 1.3830769c-.1082812.1415385-.0819844.3430769.0603281.4492308.0587813.0461538.1268438.0661538.1964532.0661538.0959062 0 .1918125-.0430769.2552343-.1246154l1.46025-1.9c.0139219-.016923.0139219-.0384615.0232032-.0553846.0015468-.0061538.0061875-.0076923.0092812-.0123077.0046406-.0092307.0015469-.02.0061875-.0292307.0108281-.0353846.0201094-.0692308.0185625-.1061539" fill="#f84848"/><path d="m79.1594719 21.3161538h-4.03425l1.06425-1.3846153c.1082812-.1415385.0819843-.3415385-.0603282-.4492308-.1407656-.1076923-.3434062-.0815385-.4516875.06l-1.46025 1.9c-.012375.0169231-.012375.0369231-.0216562.0553846-.0030938.0046154-.0092813.0061539-.012375.0123077-.0046406.0092308-.0015469.02-.0046406.0307692-.012375.0338462-.0201094.0661539-.0185625.1046154-.0015469.0353846.0061875.0692308.0185625.1030769.0030937.0107693 0 .0215385.0046406.0307693.0030937.0061538.0092812.0076923.012375.0123077.0092812.016923.0092812.0384615.0216562.0553846l1.46025 1.9c.0634219.0830769.160875.1261538.2567813.1261538.0680625 0 .1376719-.0215384.1949062-.0661538.1423125-.1076923.1686094-.3076923.0603282-.4492308l-1.06425-1.3846154h4.03425c.1778906 0 .32175-.1446154.32175-.3215384 0-.0015385-.0015469-.0046154-.0015469-.0061539 0-.0030769.0015469-.0061538.0015469-.0076923 0-.1769231-.1438594-.3215385-.32175-.3215385" fill="#f84848"/></g><g transform="translate(351 31)"><path d="m63.065382 96.373347c-26.1993886 0-47.4388236-21.4202756-47.4388236-47.8427357 0-26.42246 21.239435-47.84273566 47.4388236-47.84273566 26.2000657 0 47.438824 21.42027566 47.438824 47.84273566 0 26.4224601-21.2387583 47.8427357-47.438824 47.8427357z" fill="#e6e6e6" fill-opacity=".5"/><g transform="translate(0 7.637795)"><g transform="translate(4.10536 1.242769)"><path d="m.35400837 76.7755059v-40.2200424-19.3682444-13.45244884c0-1.84858147 1.49799206-3.34887947 3.34373227-3.34887947h56.79663646c1.5213981 0 2.7535635 1.23573653 2.7535635 2.75780224v18.60972317 31.353884 17.0508198l-13.5203815 13.3151448-.2725141-3.3488795h-45.75730436c-1.84574021 0-3.34373227-1.500298-3.34373227-3.3488794" fill="#f7f7f7"/><path d="m51.7491797 70.4112953-.2390769 10.8319507 10.2769612-10.6360412z" fill="#f3a5ab"/></g><path d="m4.17966534.43200545c-2.3055034 0-4.17966534 1.87704694-4.17966534 4.18609933v76.59222232c0 2.3090524 1.87416194 4.1860993 4.17966534 4.1860993h49.65275246v-.0016744c.2156707 0 .4263258-.0820476.586825-.2427938l13.5237252-13.4775654c.0685465-.068652.0902807-.1607462.1304055-.2444682h.1153588v-66.81181982c0-2.30905239-1.8724901-4.18609933-4.1779935-4.18609933zm-2.5077992 80.77832165v-76.59222232c0-1.38476165 1.12516591-2.5116596 2.5077992-2.5116596h59.83107346c1.3826333 0 2.5061273 1.12689795 2.5061273 2.5116596v65.62631652h-12.6877921c-.461435 0-.8342612.3734-.8342612.8355454v12.64202h-48.81514746c-1.38263329 0-2.5077992-1.126898-2.5077992-2.5116596zm52.99481286-9.2931405h10.6614903l-10.6614903 10.6276689z" fill="url(#b)" transform="translate(0 .47899)"/><path d="m43.7794867 19.9761659c-1.049932-.765219-2.1316294-1.3512729-3.2233579-1.7163007-2.3456282-.7886611-4.8082871-1.0481993-7.3127425-.7702423-7.8126305.8640109-14.0838004 7.1749743-14.913046 15.0080033-.5650907 5.3515094 1.3408367 10.5255282 5.2295973 14.1925512.5985281.5659606.9429325 1.3864361.9429325 2.2521214v4.2279604c0 1.0649436.82423 1.9339779 1.8658026 2.0227232v4.668338c-.0702184.1188852-.0969682.2662359-.050156.4085632.013375.0452099.0367811.0853965.0635309.1239086.1220463 3.0156659 2.6047675 5.430208 5.6442201 5.430208h.4982161c.2524518 1.4182505 1.4879609 2.4982641 2.9742499 2.4982641 1.4913046 0 2.7284855-1.0867114 2.9742499-2.5099851 2.9993278-.1373041 5.3967838-2.6154749 5.3967838-5.6529086v-4.9563416c1.0900568-.041861 1.9627709-.9343374 1.9627709-2.0327698v-5.7265839c0-.0636287-.0133749-.125583-.0384529-.1825139l7.2224617-7.2402775-.0066875-6.8015741c3.8653545-3.6519531 5.9635465-7.6069798 7.0920562-10.9742781.0133749-.0251166.0200624-.0502332.0234061-.0786986 1.5213982-4.5896393 1.2505559-8.0641018 1.2438684-8.1444749l-.0384529-.4169355-.4162947-.0385121c-.0167187-.0016744-.2892328-.0234422-.7673865-.0234422-2.3339252 0-9.6065429.5190764-16.3675695 6.4331975zm9.7653701-4.3669388c3.2484359-1.0096872 5.8465159-1.0816881 6.8429481-1.0582459.0234061.9845705-.0367811 3.5481378-.999776 6.7446432zm-6.1089989 6.7295733-2.2419725-2.2420748c2.6800014-2.1734228 5.4017995-3.502928 7.8076149-4.3116824l6.2159983 6.0497508c-.2156707.6630781-.4697944 1.3512729-.7724022 2.056212-.112015.2561893-.2307175.5190763-.3561075.7836378l-4.0826971-4.0806096-9.6566988 9.6866338 4.808287 4.8073165c-1.3191023.9427096-2.8003757 1.8502559-4.458867 2.6991968-.3527637-.6212171-.7339492-1.2189921-1.1418845-1.789976-.0066875-.0267911-.0150468-.0535821-.0317655-.0770243-.0183905-.0301399-.0434685-.0552565-.0718902-.0720009-.5985281-.8238243-1.2522278-1.5940666-1.9627709-2.3073779-.0050156-.0083722-.0083593-.01507-.0150468-.0217677-.0050156-.0066978-.0150468-.0083722-.0217342-.01507-.712215-.708288-1.4812734-1.3613195-2.3004878-1.9590945-.0100312-.0083722-.0183906-.0200933-.0284218-.0284655-.0100312-.0050233-.0217342-.0066977-.0317654-.011721-.5985281-.4336799-1.2304935-.833871-1.885865-1.2072711.0300936-.0586054.0551716-.1188852.0852652-.1774906.5600751-1.0883858 1.1619469-2.1198407 1.7972561-3.1027368l1.8440683 1.8435581zm-21.9265244 30.8314588v-4.2279604c0-1.1402934-.4580913-2.2286792-1.260587-2.985526-3.6580432-3.4510203-5.4486118-8.3169422-4.9169584-13.3536569.7790897-7.3641859 6.6757615-13.3000748 14.0219413-14.112178 2.360675-.2612126 4.6762096-.0167444 6.8830729.7233579.9412607.3164691 1.8791776.8137777 2.7819853 1.4534137-.4430445.4169355-.8827453.860662-1.3174305 1.3295052l-6.7041832.0050233-13.6206935 13.6617538 13.3197575-2.2270049c-.137093.3432602-.2775297.6831714-.4062634 1.0264316l-.1604992.4320054.4112791.1992584c2.4024716 1.1620611 4.2097589 2.9687816 5.3733778 5.3716026l.198952.4135866.4313415-.1624206c.3594512-.1339552.7105431-.2695848 1.0582913-.4102378l-2.2085352 13.3754246 5.4335649-5.4486269v4.9362484c0 .5693095-.4631069 1.0331293-1.0332132 1.0331293h-17.2536586c-.5667626 0-1.0315414-.4638198-1.0315414-1.0331293zm13.8614422-26.5850797c.8961202-1.3429006 1.8591151-2.5886838 2.8889847-3.7172562.835933-.9125696 1.6869129-1.7229985 2.5462521-2.4480309l1.9193023 1.9205824-5.7913443 5.8086314zm5.6893604 3.6954885 8.9478276-8.9733225 3.846964 3.8461881c-1.5046795 3.0022704-4.0375567 6.4918028-8.2857686 9.6330517zm-12.1945916-2.4781708 4.7798653-4.7955954 3.1548114-.0016744c-.0451404.0502332-.0852652.1038152-.1270618.1557229-.1136869.1356296-.2257019.2746081-.3393888.4135866-.1788897.221026-.3577794.445401-.5333253.6747992-.1136869.1506996-.2290457.304748-.3427326.4604709-.1655147.2260494-.3327014.4554476-.4965442.6898692-.1103432.1590718-.2223582.319818-.3310295.4822386-.162171.2411194-.3209983.4855876-.4781537.7300558-.1036557.1640951-.2089833.3265157-.3109671.4922852-.1604992.2612126-.3193265.5307974-.47481.8003822-.0267499.0435355-.0518279.0870709-.0785777.1322808zm2.5495959-4.7939209 1.5197263-.0016745-10.8069427 10.8403229-1.8223341.304748zm-3.0277496 5.2728107 4.6176943.2461426c-.1471242.2662359-.2909047.5408441-.4346852.8121033-.0601872.1205596-.1270618.236096-.1889209.3549812-.2290456.445401-.4514038.8991741-.6670746 1.3613195-.0601872.1289319-.1170306.2645615-.1772178.3951678-.1337493.2947014-.2691704.5877283-.3979041.8891275l-8.1603786 1.3646684zm3.0026716 6.1133794c.1822334-.472192.3711543-.9427095.5667626-1.4065293.324342-.7685679.6704183-1.5120191 1.0281977-2.238726.5717782.3281902 1.1251659.6781481 1.6534756 1.0515482l-2.1182544 3.2718552c-.3627949-.2411193-.7339492-.4705175-1.1301815-.6781481zm1.5464762.959454 2.1132388-3.2601341c.6654027.4973086 1.2923525 1.0381526 1.8841931 1.6141599l-2.7134387 2.7209645c-.4012479-.3834467-.8275738-.7451257-1.2839932-1.0749903zm1.6384288 1.431646 2.7151106-2.722639c.5901687.6078216 1.1452283 1.2474576 1.6551475 1.9356523l-3.2584671 2.1231896c-.3410607-.4755409-.712215-.9192674-1.111791-1.3362029zm8.4094867.9477329c1.835709-1.0632693 3.5176063-2.2370515 5.020614-3.5230212l.0033437 3.1596678-4.783209 4.7939209zm-7.0151504.8054055 3.2634827-2.1265385c.3611231.5123786.6988401 1.0481993 1.0164947 1.6041133-1.1318534.5609373-2.3389408 1.096758-3.6379808 1.5990899-.1972802-.3750745-.4146228-.7300557-.6419966-1.0766647zm2.7217981 1.3546217c1.3308055-.5760072 2.6014237-1.2005733 3.8068392-1.8753725l.2507799 4.626477-5.4084869 5.4235103zm-1.4913046 9.0285791 10.8086146-10.8419973.0016719 1.5220657-11.1112224 11.1467453zm-13.8229892 6.2891956h13.0204935l-13.0204935 4.1911227zm.0133749 5.2443453 15.474793-4.9814583v2.710918l-11.2867683 3.6318598c-.2641548.0853964-.4096072.3700511-.324342.6329382.0668746.2143283.2658267.3499579.4798256.3499579.0501559 0 .1019838-.0066978.1538116-.0234422l10.9774731-3.5330678v.9159185c0 2.5685906-2.0848171 4.6582914-4.6511316 4.6582914h-6.1875766c-2.4660025 0-4.483945-1.9323035-4.6360848-4.3619155zm6.0488117 5.3682537h4.1194782c-.2357332.9226163-1.0649788 1.6108111-2.0597391 1.6108111-.9930885 0-1.824006-.6881948-2.0597391-1.6108111z" fill="url(#b)"/><path d="m51.3597277 26.975324 1.7654907 1.7648595 2.7268136-2.7343601-1.7621469-1.7665339zm.7105431 0 2.0196143-2.0227232 1.0516038 1.0532226-2.0179424 2.0243976z"/><path d="m50.4619356 27.877847c-.0986401.0987919-.0986401.2578637 0 .3566557l1.4093832 1.4082038c.0484841.0502332.1136869.0753498.1772178.0753498.0652028 0 .1287337-.0251166.1788897-.0753498.0986401-.098792.0986401-.2561893 0-.3549812l-1.4093832-1.4098783c-.050156-.0502332-.1136869-.0736753-.1788897-.0736753-.0635309 0-.1270618.0234421-.1772178.0736753"/><path d="m57.8030998 17.4109242c-.1822334.182514-.2842172.4236333-.2842172.681497 0 .2578637.1019838.5006575.2842172.6831714.187249.1858628.4346852.2796314.6804495.2796314.2457644 0 .4915287-.0937686.6804496-.2813058.3761698-.376749.3761698-.9895939 0-1.3646684-.1805616-.1825139-.424654-.2813059-.6804496-.2813059-.2591392 0-.4998879.1004664-.6804495.2829803m.3561075 1.0063383c-.086937-.0853964-.1354211-.2009328-.1354211-.3248413 0-.1239085.0468122-.2377704.1354211-.3265157.0852652-.0870709.200624-.1356297.324342-.1356297.1220463 0 .237405.0485588.3243421.1356297.1805615.1808394.1805615.4705175 0 .651357-.0902808.0904198-.2073114.1356296-.3243421.1356296-.1170306 0-.2357331-.0452098-.324342-.1356296"/><path d="m45.3209472 22.1479142-4.5106948 4.5243362c-.0986401.0987919-.0986401.2561893 0 .3566557.0484841.0485587.1136869.0720009.1772178.0720009.0652028 0 .1287337-.0234422.1772178-.0720009l4.5106949-4.5260106c.0986401-.0971175.0986401-.2578638 0-.3549813-.0484841-.0502332-.1136869-.0736753-.1772178-.0736753-.0652028 0-.1287337.0234421-.1772179.0736753"/><path d="m49.5875496 28.753579c-.0986401.1004664-.0986401.2595381 0 .3583301l1.4077113 1.4082038c.050156.0502332.1136869.0736753.1788897.0736753.0652028 0 .1287337-.0234421.1772178-.0736753.0986401-.0971175.0986401-.2578637 0-.3549812l-1.4077113-1.4115527c-.050156-.0485588-.1153587-.0720009-.1788897-.0720009-.0652027 0-.1287337.0234421-.1772178.0720009"/><path d="m12.0252316 54.9294256c-.7205743 0-1.2839932-.1908862-1.6584912-.6011239-2.17844162-2.3793789 3.621262-9.9009621 7.2709458-14.1724579.1822334-.2126539.4982161-.236096.7088712-.0552565.2106552.1808395.2357332.498983.0551716.7099624-6.3514194 7.432838-8.2389563 11.8031257-7.2943519 12.836255.648684.708288 3.2534515.2963759 8.6201418-2.985526 4.8818491-2.9855261 10.8671299-7.6170264 16.8557544-13.0388622.2073114-.1858628.5249659-.1707929.7105431.0351632.187249.2059561.1705303.5257741-.0351092.7116369-9.7386203 8.8209485-20.6625936 16.560209-25.2334756 16.560209" fill="#ee4a4a"/></g><g transform="translate(34.273256 4.582677)"><path d="m40.2323849 24.7990047v29.4100945c0 1.6864252 1.3648372 3.0551181 3.0465116 3.0551181h49.6276744c1.6831977 0 3.0465117-1.3686929 3.0465117-3.0551181v-29.4100945c0-1.6879527-1.363314-3.0551181-3.0465117-3.0551181h-49.6276744c-1.6816744 0-3.0465116 1.3671654-3.0465116 3.0551181" fill="#f2f2f2"/><path d="m40.2323849 9.72184409v6.63113391c0 1.6864251 1.3648372 3.0551181 3.0465116 3.0551181h49.6276744c1.6831977 0 3.0465117-1.368693 3.0465117-3.0551181v-6.63113391c0-1.68642519-1.363314-3.05511811-3.0465117-3.05511811h-49.6276744c-1.6816744 0-3.0465116 1.36869292-3.0465116 3.05511811" fill="#f3a6ac"/><path d="m40.1802895 4.54234961s-.2391511-1.6864252.4493605-1.6864252h5.2491395v1.84070866z" fill="#f2f2f2"/><path d="m92.9067233 55.7559055h-52.9438024c-1.2597325 0-2.2848837-1.0280472-2.2848837-2.2913386v-34.4525669h57.5135698v34.4525669c0 1.2632914-1.0251512 2.2913386-2.2848837 2.2913386zm-52.9438024-51.0403307h52.9438024c1.2597325 0 2.2848837 1.02804725 2.2848837 2.29133859v10.47752751h-57.5135698v-10.47752751c0-1.26329134 1.0251512-2.29133859 2.2848837-2.29133859zm-.7311628-2.40437795c0-.4216063.3412093-.76377953.7616279-.76377953h4.691628c.4188953 0 .7616279.34217323.7616279.76377953v.8768189h-5.483721c-.2498139 0-.4935349.0259685-.7311628.07485039zm53.6749652.8768189h-45.9368256v-.8768189c0-1.26329134-1.0251512-2.29133858-2.2848837-2.29133858h-4.691628-39.99308135v3.77765354h1.52325582v-2.25009449h36.32355813c-.0837791.23982677-.1386163.49492914-.1386163.76377953v1.63448819c-.9383256.69656693-1.5537209 1.80404724-1.5537209 3.06122835v46.45765351c0 2.106504 1.7075698 3.8188977 3.8081395 3.8188977h52.9438024c2.1005697 0 3.8081395-1.7123937 3.8081395-3.8188977v-46.45765351c0-2.10650394-1.7075698-3.81889764-3.8081395-3.81889764z" fill="url(#b)" mask="url(#l)" transform="translate(0 .74438)"/><path d="m41.5845791 9.39066929c.2498139-.25051968.5818837-.388.9337558-.388.3533953 0 .6839418.13748032.9352791.388l.7601046.76225201-1.8705581 1.8743149-.7585814-.7607244c-.249814-.2520472-.386907-.5835275-.386907-.9379212 0-.35439375.137093-.68740162.386907-.93792131zm5.0937674 3.78376381c0 .3543937-.137093.685874-.386907.9363937-.4981046.5010393-1.3694069.5025669-1.8705581 0l-1.0007791-1.0036063 1.8705582-1.874315 1.000779 1.0036063c.249814.2505197.386907.5835276.386907.9379213zm-3.334407 2.0163779c.5559884.5560315 1.2841047.8340473 2.0137442.8340473.726593 0 1.4562326-.2780158 2.0106977-.8340473.536186-.5377008.8332209-1.254126.8332209-2.0163779 0-.7607244-.2970349-1.4786772-.8332209-2.0179055l-2.8378256-2.84584256c-1.1104535-1.11359055-2.9139884-1.11359055-4.0229186 0-1.1104535 1.11206299-1.1104535 2.92222046 0 4.03581106z" fill="#f84848"/><path d="m85.7589977 12.2368173.9992558-1.0036063 1.8705581 1.874315-1.000779 1.0036063c-.5011512.5010394-1.369407.5010394-1.8690349 0-.249814-.2520473-.386907-.582-.386907-.9379213 0-.3528661.137093-.685874.386907-.9363937m3.7715814-3.2338425c.3533953 0 .6854651.13748032.935279.388.249814.25051969.386907.58352756.386907.9379213 0 .3528661-.137093.685874-.386907.9363937l-.7601046.7622519-1.8705582-1.8743149.7601047-.762252c.249814-.25051968.5818837-.388.9352791-.388m-2.8378256 7.0206614c.7296395 0 1.4562325-.2764882 2.0122209-.8325197l2.8378256-2.8458425c1.1089302-1.112063 1.1089302-2.92222046 0-4.03428345-1.1119767-1.11511811-2.9155116-1.11359055-4.0244419 0l-2.8363023 2.84584255c-.5377093.5392283-.8332209 1.2556535-.8332209 2.0163779 0 .762252.2955116 1.4802047.8332209 2.0179055.5544651.5560315 1.2825814.8325197 2.0106977.8325197" fill="#f84848"/><path d="m1.6184593.08050236c.79056977 0 1.43033721.64310236 1.43033721 1.43437795 0 .79433071-.63976744 1.43590552-1.43033721 1.43590552-.79056976 0-1.43033721-.64157481-1.43033721-1.43590552 0-.79127559.63976745-1.43437795 1.43033721-1.43437795zm6.65678023 0c.79056977 0 1.43033721.64310236 1.43033721 1.43437795 0 .79433071-.63976744 1.43590552-1.43033721 1.43590552-.79056976 0-1.4303372-.64157481-1.4303372-1.43590552 0-.79127559.63976744-1.43437795 1.4303372-1.43437795zm6.65678027 0c.7905697 0 1.4303372.64310236 1.4303372 1.43437795 0 .79433071-.6397675 1.43590552-1.4303372 1.43590552-.7920931 0-1.4303372-.64157481-1.4303372-1.43590552 0-.79127559.6382441-1.43437795 1.4303372-1.43437795zm6.6569325 0c.7905698 0 1.4303372.64310236 1.4303372 1.43437795 0 .79433071-.6397674 1.43590552-1.4303372 1.43590552-.792093 0-1.4303372-.64157481-1.4303372-1.43590552 0-.79127559.6382442-1.43437795 1.4303372-1.43437795zm6.6567803 0c.7905697 0 1.4303372.64310236 1.4303372 1.43437795 0 .79433071-.6397675 1.43590552-1.4303372 1.43590552-.7920931 0-1.4303373-.64157481-1.4303373-1.43590552 0-.79127559.6382442-1.43437795 1.4303373-1.43437795zm6.6567802 0c.7905698 0 1.4303372.64310236 1.4303372 1.43437795 0 .79433071-.6397674 1.43590552-1.4303372 1.43590552-.792093 0-1.4303372-.64157481-1.4303372-1.43590552 0-.79127559.6382442-1.43437795 1.4303372-1.43437795zm6.655257 0c.792093 0 1.4303372.64310236 1.4303372 1.43437795 0 .79433071-.6382442 1.43590552-1.4303372 1.43590552-.7905698 0-1.4303372-.64157481-1.4303372-1.43590552 0-.79127559.6397674-1.43437795 1.4303372-1.43437795zm6.6567802 0c.792093 0 1.4303372.64310236 1.4303372 1.43437795 0 .79433071-.6382442 1.43590552-1.4303372 1.43590552-.7905698 0-1.4303372-.64157481-1.4303372-1.43590552 0-.79127559.6397674-1.43437795 1.4303372-1.43437795zm-46.5960907 5.13916693c.79056977 0 1.43033721.64310236 1.43033721 1.43437795 0 .79280315-.63976744 1.43590552-1.43033721 1.43590552-.79056976 0-1.43033721-.64310237-1.43033721-1.43590552 0-.79127559.63976745-1.43437795 1.43033721-1.43437795zm6.65678023 0c.79056977 0 1.43033721.64310236 1.43033721 1.43437795 0 .79280315-.63976744 1.43590552-1.43033721 1.43590552-.79056976 0-1.4303372-.64310237-1.4303372-1.43590552 0-.79127559.63976744-1.43437795 1.4303372-1.43437795zm6.65678027 0c.7905697 0 1.4303372.64310236 1.4303372 1.43437795 0 .79280315-.6397675 1.43590552-1.4303372 1.43590552-.7920931 0-1.4303372-.64310237-1.4303372-1.43590552 0-.79127559.6382441-1.43437795 1.4303372-1.43437795zm6.6569325 0c.7905698 0 1.4303372.64310236 1.4303372 1.43437795 0 .79280315-.6397674 1.43590552-1.4303372 1.43590552-.792093 0-1.4303372-.64310237-1.4303372-1.43590552 0-.79127559.6382442-1.43437795 1.4303372-1.43437795zm6.6567803 0c.7905697 0 1.4303372.64310236 1.4303372 1.43437795 0 .79280315-.6397675 1.43590552-1.4303372 1.43590552-.7920931 0-1.4303373-.64310237-1.4303373-1.43590552 0-.79127559.6382442-1.43437795 1.4303373-1.43437795zm6.6567802 0c.7905698 0 1.4303372.64310236 1.4303372 1.43437795 0 .79280315-.6397674 1.43590552-1.4303372 1.43590552-.792093 0-1.4303372-.64310237-1.4303372-1.43590552 0-.79127559.6382442-1.43437795 1.4303372-1.43437795zm6.655257 0c.792093 0 1.4303372.64310236 1.4303372 1.43437795 0 .79280315-.6382442 1.43590552-1.4303372 1.43590552-.7905698 0-1.4303372-.64310237-1.4303372-1.43590552 0-.79127559.6397674-1.43437795 1.4303372-1.43437795zm6.6567802 0c.792093 0 1.4303372.64310236 1.4303372 1.43437795 0 .79280315-.6382442 1.43590552-1.4303372 1.43590552-.7905698 0-1.4303372-.64310237-1.4303372-1.43590552 0-.79127559.6397674-1.43437795 1.4303372-1.43437795zm-46.5960907 5.13901421c.79056977 0 1.43033721.6415748 1.43033721 1.4343779 0 .7928032-.63976744 1.4359055-1.43033721 1.4359055-.79056976 0-1.43033721-.6431023-1.43033721-1.4359055 0-.7928031.63976745-1.4343779 1.43033721-1.4343779zm6.65678023 0c.79056977 0 1.43033721.6415748 1.43033721 1.4343779 0 .7928032-.63976744 1.4359055-1.43033721 1.4359055-.79056976 0-1.4303372-.6431023-1.4303372-1.4359055 0-.7928031.63976744-1.4343779 1.4303372-1.4343779zm6.65678027 0c.7905697 0 1.4303372.6415748 1.4303372 1.4343779 0 .7928032-.6397675 1.4359055-1.4303372 1.4359055-.7920931 0-1.4303372-.6431023-1.4303372-1.4359055 0-.7928031.6382441-1.4343779 1.4303372-1.4343779zm6.6569325 0c.7905698 0 1.4303372.6415748 1.4303372 1.4343779 0 .7928032-.6397674 1.4359055-1.4303372 1.4359055-.792093 0-1.4303372-.6431023-1.4303372-1.4359055 0-.7928031.6382442-1.4343779 1.4303372-1.4343779zm6.6567803 0c.7905697 0 1.4303372.6415748 1.4303372 1.4343779 0 .7928032-.6397675 1.4359055-1.4303372 1.4359055-.7920931 0-1.4303373-.6431023-1.4303373-1.4359055 0-.7928031.6382442-1.4343779 1.4303373-1.4343779zm6.6567802 0c.7905698 0 1.4303372.6415748 1.4303372 1.4343779 0 .7928032-.6397674 1.4359055-1.4303372 1.4359055-.792093 0-1.4303372-.6431023-1.4303372-1.4359055 0-.7928031.6382442-1.4343779 1.4303372-1.4343779zm6.655257 0c.792093 0 1.4303372.6415748 1.4303372 1.4343779 0 .7928032-.6382442 1.4359055-1.4303372 1.4359055-.7905698 0-1.4303372-.6431023-1.4303372-1.4359055 0-.7928031.6397674-1.4343779 1.4303372-1.4343779zm6.6567802 0c.792093 0 1.4303372.6415748 1.4303372 1.4343779 0 .7928032-.6382442 1.4359055-1.4303372 1.4359055-.7905698 0-1.4303372-.6431023-1.4303372-1.4359055 0-.7928031.6397674-1.4343779 1.4303372-1.4343779zm-46.5960907 5.1376393c.79056977 0 1.43033721.6431024 1.43033721 1.434378 0 .7943307-.63976744 1.4359055-1.43033721 1.4359055-.79056976 0-1.43033721-.6415748-1.43033721-1.4359055 0-.7912756.63976745-1.434378 1.43033721-1.434378zm6.65678023 0c.79056977 0 1.43033721.6431024 1.43033721 1.434378 0 .7943307-.63976744 1.4359055-1.43033721 1.4359055-.79056976 0-1.4303372-.6415748-1.4303372-1.4359055 0-.7912756.63976744-1.434378 1.4303372-1.434378zm6.65678027 0c.7905697 0 1.4303372.6431024 1.4303372 1.434378 0 .7943307-.6397675 1.4359055-1.4303372 1.4359055-.7920931 0-1.4303372-.6415748-1.4303372-1.4359055 0-.7912756.6382441-1.434378 1.4303372-1.434378zm6.6569325 0c.7905698 0 1.4303372.6431024 1.4303372 1.434378 0 .7943307-.6397674 1.4359055-1.4303372 1.4359055-.792093 0-1.4303372-.6415748-1.4303372-1.4359055 0-.7912756.6382442-1.434378 1.4303372-1.434378zm6.6567803 0c.7905697 0 1.4303372.6431024 1.4303372 1.434378 0 .7943307-.6397675 1.4359055-1.4303372 1.4359055-.7920931 0-1.4303373-.6415748-1.4303373-1.4359055 0-.7912756.6382442-1.434378 1.4303373-1.434378zm6.6567802 0c.7905698 0 1.4303372.6431024 1.4303372 1.434378 0 .7943307-.6397674 1.4359055-1.4303372 1.4359055-.792093 0-1.4303372-.6415748-1.4303372-1.4359055 0-.7912756.6382442-1.434378 1.4303372-1.434378zm6.655257 0c.792093 0 1.4303372.6431024 1.4303372 1.434378 0 .7943307-.6382442 1.4359055-1.4303372 1.4359055-.7905698 0-1.4303372-.6415748-1.4303372-1.4359055 0-.7912756.6397674-1.434378 1.4303372-1.434378zm6.6567802 0c.792093 0 1.4303372.6431024 1.4303372 1.434378 0 .7943307-.6382442 1.4359055-1.4303372 1.4359055-.7905698 0-1.4303372-.6415748-1.4303372-1.4359055 0-.7912756.6397674-1.434378 1.4303372-1.434378zm-46.5960907 5.139167c.79056977 0 1.43033721.6431023 1.43033721 1.4343779 0 .7928032-.63976744 1.4359055-1.43033721 1.4359055-.79056976 0-1.43033721-.6431023-1.43033721-1.4359055 0-.7912756.63976745-1.4343779 1.43033721-1.4343779zm6.65678023 0c.79056977 0 1.43033721.6431023 1.43033721 1.4343779 0 .7928032-.63976744 1.4359055-1.43033721 1.4359055-.79056976 0-1.4303372-.6431023-1.4303372-1.4359055 0-.7912756.63976744-1.4343779 1.4303372-1.4343779zm6.65678027 0c.7905697 0 1.4303372.6431023 1.4303372 1.4343779 0 .7928032-.6397675 1.4359055-1.4303372 1.4359055-.7920931 0-1.4303372-.6431023-1.4303372-1.4359055 0-.7912756.6382441-1.4343779 1.4303372-1.4343779zm6.6569325 0c.7905698 0 1.4303372.6431023 1.4303372 1.4343779 0 .7928032-.6397674 1.4359055-1.4303372 1.4359055-.792093 0-1.4303372-.6431023-1.4303372-1.4359055 0-.7912756.6382442-1.4343779 1.4303372-1.4343779zm6.6567803 0c.7905697 0 1.4303372.6431023 1.4303372 1.4343779 0 .7928032-.6397675 1.4359055-1.4303372 1.4359055-.7920931 0-1.4303373-.6431023-1.4303373-1.4359055 0-.7912756.6382442-1.4343779 1.4303373-1.4343779zm6.6567802 0c.7905698 0 1.4303372.6431023 1.4303372 1.4343779 0 .7928032-.6397674 1.4359055-1.4303372 1.4359055-.792093 0-1.4303372-.6431023-1.4303372-1.4359055 0-.7912756.6382442-1.4343779 1.4303372-1.4343779zm6.655257 0c.792093 0 1.4303372.6431023 1.4303372 1.4343779 0 .7928032-.6382442 1.4359055-1.4303372 1.4359055-.7905698 0-1.4303372-.6431023-1.4303372-1.4359055 0-.7912756.6397674-1.4343779 1.4303372-1.4343779zm6.6567802 0c.792093 0 1.4303372.6431023 1.4303372 1.4343779 0 .7928032-.6382442 1.4359055-1.4303372 1.4359055-.7905698 0-1.4303372-.6431023-1.4303372-1.4359055 0-.7912756.6397674-1.4343779 1.4303372-1.4343779zm-46.5960907 5.1390141c.79056977 0 1.43033721.6431024 1.43033721 1.434378 0 .7928031-.63976744 1.4359055-1.43033721 1.4359055-.79056976 0-1.43033721-.6431024-1.43033721-1.4359055 0-.7912756.63976745-1.434378 1.43033721-1.434378zm6.65678023 0c.79056977 0 1.43033721.6431024 1.43033721 1.434378 0 .7928031-.63976744 1.4359055-1.43033721 1.4359055-.79056976 0-1.4303372-.6431024-1.4303372-1.4359055 0-.7912756.63976744-1.434378 1.4303372-1.434378zm6.65678027 0c.7905697 0 1.4303372.6431024 1.4303372 1.434378 0 .7928031-.6397675 1.4359055-1.4303372 1.4359055-.7920931 0-1.4303372-.6431024-1.4303372-1.4359055 0-.7912756.6382441-1.434378 1.4303372-1.434378zm6.6569325 0c.7905698 0 1.4303372.6431024 1.4303372 1.434378 0 .7928031-.6397674 1.4359055-1.4303372 1.4359055-.792093 0-1.4303372-.6431024-1.4303372-1.4359055 0-.7912756.6382442-1.434378 1.4303372-1.434378zm6.6567803 0c.7905697 0 1.4303372.6431024 1.4303372 1.434378 0 .7928031-.6397675 1.4359055-1.4303372 1.4359055-.7920931 0-1.4303373-.6431024-1.4303373-1.4359055 0-.7912756.6382442-1.434378 1.4303373-1.434378zm6.6567802 0c.7905698 0 1.4303372.6431024 1.4303372 1.434378 0 .7928031-.6397674 1.4359055-1.4303372 1.4359055-.792093 0-1.4303372-.6431024-1.4303372-1.4359055 0-.7912756.6382442-1.434378 1.4303372-1.434378zm6.655257 0c.792093 0 1.4303372.6431024 1.4303372 1.434378 0 .7928031-.6382442 1.4359055-1.4303372 1.4359055-.7905698 0-1.4303372-.6431024-1.4303372-1.4359055 0-.7912756.6397674-1.434378 1.4303372-1.434378zm6.6567802 0c.792093 0 1.4303372.6431024 1.4303372 1.434378 0 .7928031-.6382442 1.4359055-1.4303372 1.4359055-.7905698 0-1.4303372-.6431024-1.4303372-1.4359055 0-.7912756.6397674-1.434378 1.4303372-1.434378z" fill="#fabec3" transform="translate(41.127907 23.677165)"/></g></g><g transform="translate(403 208)"><g fill="#e6e6e6"><rect fill-opacity=".5" height="15.640625" rx="7.820313" width="120" y="61.359375"/><path d="m64.19772 27.8522234h42.5556v-1.5941406c0-.8109062-.6552-1.4678125-1.464-1.4678125h-41.0916z"/><path d="m64.1976 75.8162453h31.6776v-47.9637812h-31.6776z"/></g><path d="m95.8752 75.8102297h10.8792v-47.9589688h-10.8792z" fill="#dbd1d1"/><path d="m61.58604 35.5435609h-47.9892v31.8370938l47.9892-.01925z" fill="#f7f7f7"/><path d="m61.58604 35.5435609v-29.14570309c0-1.9201875-1.5516-3.47582812-3.4668-3.47582812h-41.0556c-1.9152 0-3.4668 1.55564062-3.4668 3.47582812v29.14570309z" fill="#f4a6ac"/><path d="m42.21216 28.1087297h-8.5908c-.6132 0-1.11-.4980938-1.11-1.1128906 0-.6135938.4968-1.1116875 1.11-1.1116875h8.5908c.6132 0 1.11.4980937 1.11 1.1116875 0 .6147968-.4968 1.1128906-1.11 1.1128906" fill="#f94848"/><path d="m58.88508 73.8387891h-42.9168c-1.3092 0-2.3712-1.0647657-2.3712-2.377375v-4.494875l47.9892.0890312v4.0749844c0 1.4954844-1.2096 2.7082344-2.7012 2.7082344" fill="#e6e6e6"/><path d="m111.04116 75.2036141c.3312 0 .6.2695.6.6015625s-.2688.6015625-.6.6015625h-2.0592c-.0108 0-.0192.0060156-.0288.0060156h-44.7552c-.0108 0-.0192-.0060156-.03-.0060156h-5.2404c-.0372.0012031-.072.0108281-.1104.0108281h-42.8628c-.0384 0-.0732-.009625-.1104-.0108281h-8.0436c-.3324 0-.6-.2695-.6-.6015625s.2676-.6015625.6-.6015625h4.8168c-1.1988-.9781407-1.9812-2.4507657-1.9812-4.1170938v-65.75559374c0-2.93923437 2.3856-5.33104687 5.3184-5.33104687h42.8628c2.9328 0 5.3172 2.3918125 5.3172 5.33104687v17.32740624c.0216-.0036094.0408-.0132344.0636-.0132344h41.9904c1.8552 0 3.3648 1.5123282 3.3648 3.3723594v49.1861563zm-46.9068-4.1170938c0 1.6663281-.7824 3.1389531-1.98 4.1170938h33.42v-46.9002188h-31.3764v-1.2151562h44.1552v-1.0707813c0-1.1959062-.972-2.1692344-2.1648-2.1692344h-41.9904c-.0228 0-.042-.0108281-.0636-.0132343v8.1980937c.0216-.0024062.0408-.0132344.0636-.0132344h12.5832c.3312 0 .6.2695.6.6015625 0 .3332657-.2688.6015625-.6.6015625h-12.5832c-.0228 0-.042-.009625-.0636-.0120312v2.1307344c.0216-.0036094.0408-.0132344.0636-.0132344h2.7468c.3312 0 .6.2682969.6.6015625 0 .3320625-.2688.6015625-.6.6015625h-2.7468c-.0228 0-.042-.0108281-.0636-.0132344v2.1307344c.0216-.0036094.0408-.0132344.0636-.0132344h20.43c.3312 0 .6.2682969.6.6015625 0 .3320625-.2688.6015625-.6.6015625h-20.43c-.0228 0-.042-.0108281-.0636-.0132344v2.1307344c.0216-.0024062.0408-.0132344.0636-.0132344h12.5832c.3312 0 .6.2695.6.6015625 0 .3332657-.2688.6015625-.6.6015625h-12.5832c-.0228 0-.042-.009625-.0636-.0120312v1.9129687h3.2112c.3348 0 .6072.2719063.6072.6087813 0 .3356719-.2724.6075781-.6072.6075781h-3.2112v2.3087969c.0216-.0036094.0408-.0132344.0636-.0132344h4.7376c.3312 0 .6.2695.6.6015625s-.2688.6015625-.6.6015625h-4.7376c-.0228 0-.042-.0108281-.0636-.0132344v2.36775c.0216-.0024062.0408-.0132343.0636-.0132343h12.5832c.3312 0 .6.2695.6.6015625 0 .3332656-.2688.6015625-.6.6015625h-12.5832c-.0228 0-.042-.009625-.0636-.0132344zm16.24692-35.7581984c.3312 0 .6.2695.6.6015625s-.2688.6015625-.6.6015625h-9.8112c-.3312 0-.6-.2695-.6-.6015625s.2688-.6015625.6-.6015625zm10.5246 0c.3312 0 .6.2695.6.6015625s-.2688.6015625-.6.6015625h-7.5864c-.3324 0-.6-.2695-.6-.6015625s.2676-.6015625.6-.6015625zm-79.06992 35.7581984c0 2.2390156 1.7892 4.0569375 4.008 4.1170938h43.0836c2.2176-.0601563 4.0068-1.8780782 4.0068-4.1170938v-3.1257187l-51.0984.0421093zm25.26792-1.8329609c1.2276 0 2.2272 1.0022031 2.2272 2.233s-.9996 2.233-2.2272 2.233-2.2272-1.0022031-2.2272-2.233.9996-2.233 2.2272-2.233zm0 3.8644375c.8976 0 1.6272-.7315 1.6272-1.6314375s-.7296-1.6314375-1.6272-1.6314375-1.6272.7315-1.6272 1.6314375.7296 1.6314375 1.6272 1.6314375zm-21.14952-71.91499221c-2.2716 0-4.1184 1.85160937-4.1184 4.12792187v61.46885934l51.0984-.0421093v-61.42675004c0-2.2763125-1.8468-4.12792187-4.1172-4.12792187zm80.22 73.99940621h12.1776v-46.8990156h-12.1776zm1.94148-41.6870781c-.2472 0-.4464-.2009219-.4464-.4475625 0-.2478437.1992-.4475625.4464-.4475625h4.908c.2472 0 .4464.1997188.4464.4475625 0 .2466406-.1992.4475625-.4464.4475625zm0 3.0492c-.2472 0-.4464-.1997187-.4464-.4475625 0-.2478437.1992-.4475625.4464-.4475625h3.1224c.2472 0 .4464.1997188.4464.4475625 0 .2478438-.1992.4475625-.4464.4475625zm0 3.049561c-.2472 0-.4464-.2009219-.4464-.4475625 0-.2478438.1992-.4475625.4464-.4475625h4.908c.2472 0 .4464.1997187.4464.4475625 0 .2466406-.1992.4475625-.4464.4475625zm0 3.0491999c-.2472 0-.4464-.2009218-.4464-.4475625 0-.2478437.1992-.4475625.4464-.4475625h5.8008c.2472 0 .4464.1997188.4464.4475625 0 .2466407-.1992.4475625-.4464.4475625zm4.80408-6.5460828c0-.2478437.2004-.4475625.4464-.4475625h.444c.2472 0 .4464.1997188.4464.4475625 0 .2478438-.1992.4475625-.4464.4475625h-.444c-.246 0-.4464-.1997187-.4464-.4475625zm-1.62888 8.7297547c.2472 0 .4464.1997188.4464.4475625 0 .2478438-.1992.4475625-.4464.4475625h-3.1224c-.2472 0-.4464-.1997187-.4464-.4475625 0-.2478437.1992-.4475625.4464-.4475625zm2.5728 0c.2472 0 .4464.1997188.4464.4475625 0 .2478438-.1992.4475625-.4464.4475625h-.444c-.2472 0-.4464-.1997187-.4464-.4475625 0-.2478437.1992-.4475625.4464-.4475625zm-2.5728 3.4184391c.2472 0 .4464.2009219.4464.4475625 0 .2478437-.1992.4475625-.4464.4475625h-3.1224c-.2472 0-.4464-.1997188-.4464-.4475625 0-.2466406.1992-.4475625.4464-.4475625zm2.5728 0c.2472 0 .4464.2009219.4464.4475625 0 .2478437-.1992.4475625-.4464.4475625h-.444c-.2472 0-.4464-.1997188-.4464-.4475625 0-.2466406.1992-.4475625.4464-.4475625zm-80.08416-24.8038656c-.3312 0-.6-.2695-.6-.6015625s.2688-.6015625.6-.6015625h27.3636c.3312 0 .6.2695.6.6015625s-.2688.6015625-.6.6015625zm3.91524-3.1934547c-.3312 0-.6-.2695-.6-.6015625s.2688-.6015625.6-.6015625h19.5324c.3324 0 .6.2695.6.6015625s-.2676.6015625-.6.6015625zm-8.577 37.342714c-.1656 0-.3-.13475-.3-.3007812 0-.1660313.1344-.3007813.3-.3007813h14.8224c.1644 0 .3.13475.3.3007813 0 .1660312-.1356.3007812-.3.3007812zm12.98916 2.7539532c.1656 0 .3.13475.3.3007812 0 .1660313-.1344.3007813-.3.3007813h-11.82c-.1644 0-.3-.13475-.3-.3007813 0-.1660312.1356-.3007812.3-.3007812zm9.075-3.0547344c0-.1660313.1344-.3007813.3-.3007813h14.8224c.1644 0 .3.13475.3.3007813 0 .1660312-.1356.3007812-.3.3007812h-14.8224c-.1656 0-.3-.13475-.3-.3007812zm13.6206 3.0547344c.1656 0 .3.13475.3.3007812 0 .1660313-.1344.3007813-.3.3007813h-11.82c-.1644 0-.3-.13475-.3-.3007813 0-.1660312.1356-.3007812.3-.3007812z" fill="url(#b)"/><path d="m33.35652 47.191375c0 3.6887813-2.9832 6.67975-6.6624 6.67975s-6.6624-2.9909687-6.6624-6.67975c0-3.6887812 2.9832-6.67975 6.6624-6.67975s6.6624 2.9909688 6.6624 6.67975" fill="#dbd1d1"/><path d="m55.27428 47.191375c0 3.6887813-2.9832 6.67975-6.6624 6.67975s-6.6624-2.9909687-6.6624-6.67975c0-3.6887812 2.9832-6.67975 6.6624-6.67975s6.6624 2.9909688 6.6624 6.67975" fill="#dbd1d1"/></g><g transform="translate(681 43)"><path d="m56.3066245 112.551587c-31.0968743 0-56.3066245-25.1515605-56.3066245-56.1766565 0-31.0250961 25.2097502-56.17665685 56.3066245-56.17665685 31.0976779 0 56.3066245 25.15156075 56.3066245 56.17665685 0 31.025096-25.2089466 56.1766565-56.3066245 56.1766565z" fill="#e6e6e6" fill-opacity=".5"/><g transform="translate(18.08 6.277778)"><g transform="translate(4.87278 1.459252)"><path d="m.42018361 90.1493442v-47.2261355-22.7420779-15.79578568c0-2.17059341 1.77801366-3.93223444 3.96878049-3.93223444h67.4137054c1.8057951 0 3.2682907 1.45099451 3.2682907 3.23819506v21.85142676 36.8155449 20.0209716l-16.0477639 15.6345641-.3234556-3.9322345h-54.3107766c-2.19076683 0-3.96878049-1.761641-3.96878049-3.9322344" fill="#f7f7f7"/><path d="m61.422721 82.6765259-.2837678 12.7188123 12.1980468-12.4887766z" fill="#f3a5ab"/></g><path d="m4.96097561.50725824c-2.73647415 0-4.96097561 2.2040174-4.96097561 4.91529304v89.93413372c0 2.7112756 2.22450146 4.915293 4.96097561 4.915293h58.93440589v-.001966c.2559863 0 .5060195-.09634.6965209-.2850871l16.0517327-15.8252775c.08136-.0806108.1071571-.1887472.1547825-.2870531h.1369229v-78.45004302c0-2.71127564-2.2225171-4.91529304-4.9589912-4.91529304zm-2.97658537 94.84942676v-89.93413372c0-1.62597894 1.33549464-2.94917582 2.97658537-2.94917582h71.01537369c1.6410907 0 2.9746009 1.32319688 2.9746009 2.94917582v77.05803202h-15.0595375c-.5476917 0-.9902107.4384442-.9902107.9810925v14.844185h-57.94022639c-1.64109073 0-2.97658537-1.3231969-2.97658537-2.9491758zm62.90120196-10.9119506h12.6544566l-12.6544566 12.478946z" fill="url(#b)" transform="translate(0 .562427)"/><path d="m51.9632429 23.4558957c-1.246197-.8985156-2.5300975-1.5866566-3.8259044-2.0152702-2.7840995-.9260412-5.7071063-1.2307894-8.6797229-.9044139-9.2730556 1.0145165-16.7165034 8.4248123-17.700761 17.6223086-.6707239 6.2837106 1.591481 12.3590128 6.2071727 16.6648095.7104117.6645477 1.1191961 1.6279451 1.1191961 2.6444277v4.964446c0 1.2504505.9783044 2.2708653 2.2145795 2.3750696v5.4815348c-.0833444.1395943-.1150946.3126126-.0595317.4797326.0158751.0530851.0436566.1002719.0754068.1454926.1448605 3.5409771 3.09168 6.3761182 6.6993015 6.3761182h.5913483c.2996429 1.6653012 1.7661073 2.9334468 3.5302302 2.9334468 1.7700761 0 3.2385249-1.27601 3.5302303-2.9472097 3.5599961-.1612216 6.4056117-3.0710751 6.4056117-6.6376117v-5.8197069c1.2938224-.049153 2.3296741-1.0970934 2.3296741-2.3868663v-6.7241209c0-.0747125-.0158751-.1474588-.0456409-.2143068l8.5725658-8.5014908-.0079375-7.9863682c4.5879102-4.2881016 7.07832-8.9320705 8.4177834-12.8859322.0158751-.0294918.0238127-.0589835.0277814-.0924075 1.8057952-5.3891273 1.4843239-9.4688205 1.4763864-9.5631942l-.045641-.4895631-.4941132-.0452207c-.0198439-.0019662-.3432995-.0275257-.9108351-.0275257-2.7702088 0-11.4023063.6094964-19.4271805 7.5538224zm11.5908234-5.1276337c3.8556703-1.1855687 6.9394127-1.2701118 8.1221093-1.2425861.0277815 1.1560769-.0436566 4.1662024-1.1866654 7.9195201zm-7.2509619 7.9018251-2.6610673-2.632631c3.1809775-2.5520201 6.4115649-4.1131172 9.2671024-5.0627518l7.3779629 7.1035815c-.2559863.7785824-.5576136 1.5866566-.9167883 2.4143919-.1329541.300816-.2738458.6094964-.4226751.9201429l-4.845881-4.7914277-11.461838 11.3739881 5.7071063 5.6447225c-1.5656839 1.106924-3.3238536 2.1725596-5.2923687 3.169381-.4187064-.7294295-.8711474-1.4313333-1.3553386-2.1017793-.0079375-.0314579-.0178595-.0629158-.0377034-.0904414-.0218283-.0353901-.0515941-.0648819-.0853288-.084543-.7104117-.9673297-1.4863083-1.8717436-2.3296741-2.7093096-.0059532-.0098306-.009922-.017695-.0178595-.0255595-.0059532-.0078645-.0178595-.0098306-.0257971-.017695-.8453502-.8316676-1.7581698-1.5984533-2.730521-2.3003572-.0119063-.0098306-.0218283-.0235934-.0337346-.033424-.0119064-.0058983-.0257971-.0078644-.0377034-.0137628-.7104117-.5092244-1.4605112-.9791264-2.2383922-1.4175705.035719-.0688141.0654849-.1395943.1012039-.2084084.6647707-1.2779762 1.3791512-2.4891044 2.1332195-3.6432152l2.1887824 2.164695zm-26.0252781 36.2021163v-4.964446c0-1.3389258-.5437229-2.616902-1.4962302-3.505587-4.3418459-4.0521676-6.4671278-9.7657042-5.8360917-15.6797848.9247258-8.6469835 7.9236702-15.6168691 16.643081-16.5704359 2.801959-.3067143 5.5503395-.0196612 8.1697346.8493626 1.1172117.3715962 2.2304546.955533 3.3020254 1.7065898-.5258634.4895632-1.0477581 1.0105842-1.5636995 1.561097l-7.9574049.0058984-16.1668273 16.0415504 15.809637-2.6149359c-.16272.403054-.3294087.8021758-.4822068 1.2052298l-.1905015.5072583.48816.2339679c2.8515688 1.3644854 4.9966947 3.4859258 6.3778303 6.307304l.2361424.485631.5119727-.1907134c.4266439-.1572894.8433659-.3165449 1.256119-.4816987l-2.6213795 15.7053443 6.4492683-6.3977454v5.7961136c0 .6684798-.5496761 1.2130943-1.2263532 1.2130943h-20.4789073c-.6727083 0-1.2243688-.5446145-1.2243688-1.2130943zm16.4525796-31.2160431c1.0636331-1.576826 2.2066419-3.0396172 3.4290263-4.3647802.9921951-1.0715339 2.0022498-2.0231346 3.0222263-2.8744634l2.27808 2.2551365-6.8739278 6.8204606zm6.75288 4.3392207 10.6204565-10.5364221 4.566082 4.5161712c-1.7859512 3.5252482-4.7923024 7.6226364-9.8346381 11.3110723zm-14.4741425-2.9098535 5.6733717-5.6309597 3.7445444-.0019661c-.0535785.0589835-.1012039.1218993-.1508136.1828489-.1349386.1592555-.2678927.3224432-.4028313.485631-.2123297.2595274-.4246595.5229871-.6330205.7923452-.1349385.1769506-.2718614.3578333-.4068.5406822-.1964546.2654259-.3948936.5347839-.5893639.8100403-.1309697.1867812-.2639239.3755284-.3929092.5662418-.1924859.2831209-.381003.570174-.5675356.8572271-.1230322.1926795-.2480488.3833929-.3690966.5780385-.1905015.3067142-.3790186.6232591-.5635668.939804-.0317503.051119-.0615161.1022381-.0932664.1553232zm3.0261951-5.6289936 1.8038108-.0019661-12.8270986 12.7286429-2.1629853.3578333zm-3.5937307 6.1913032 5.4808859.2890192c-.1746264.3126126-.3452839.6350558-.5159415.9535668-.0714381.1415605-.1508137.2772226-.2242361.4168169-.2718615.5229872-.5357854 1.0558049-.7917717 1.5984533-.0714381.151391-.1389073.3106465-.2103454.4640036-.1587512.3460367-.3194868.6901072-.4722849 1.0440083l-9.6858087 1.6023855zm3.5639649 7.1782939c.2162985-.554445.4405346-1.106924.6727083-1.6515384.3849717-.9024479.7957405-1.7754039 1.2204-2.6286988.6786614.385359 1.3354946.7962775 1.9625619 1.2347216l-2.5142224 3.8417931c-.4306127-.2831209-.8711473-.552479-1.3414478-.7962775zm1.835561 1.1265852 2.5082692-3.8280302c.7897873.5839368 1.5339337 1.2189926 2.2364078 1.895337l-3.2206653 3.1949404c-.4762537-.4502408-.9822732-.8749221-1.5240117-1.2622472zm1.9447024 1.6810302 3.2226498-3.1969066c.7004897.7137006 1.3593073 1.4647573 1.9645463 2.2728315l-3.8675766 2.4930366c-.4048156-.5583773-.8453502-1.0793983-1.3196195-1.5689615zm9.9814829 1.1128223c2.1788605-1.2484844 4.1751571-2.6267326 5.9591239-4.1367106l.0039688 3.7100632-5.6773405 5.6289936zm-8.3265014.9457024 3.8735297-2.4969688c.4286283.6016318.8294751 1.2307893 1.2065093 1.8835403-1.3434322.6586492-2.776162 1.2878067-4.3180332 1.8776419-.234158-.4404103-.4921288-.8572271-.7620058-1.2642134zm3.2305873 1.5905889c1.5795746-.6763444 3.0877112-1.4097061 4.5184566-2.2020513l.2976585 5.4323818-6.4195024 6.3682537zm-1.7700761 10.601304 12.8290829-12.730609.0019844 1.7872006-13.1882576 13.0884423zm-16.4069386 7.3847362h15.4544313l-15.4544313 4.9211914zm.0158752 6.1578792 18.3675161-5.8491988v3.1831438l-13.3966186 4.2645083c-.3135336.1002719-.4861756.4345119-.3849717.7431923.0793756.251663.3155181.4109185.56952.4109185.0595317 0 .1210478-.0078645.1825639-.0275257l13.0295064-4.1485073v1.0754661c0 3.0160238-2.4745347 5.4697381-5.5205737 5.4697381h-7.3442283c-2.9269756 0-5.3221346-2.2688993-5.5027141-5.1217353zm7.1795239 6.3033718h4.8895375c-.279799 1.0833305-1.2640566 1.8914047-2.4447688 1.8914047-1.1787278 0-2.1649697-.8080742-2.4447687-1.8914047z" fill="url(#b)"/><path d="m60.9604683 31.6742656 2.0955161 2.0722876 3.2365405-3.2106694-2.0915473-2.0742537zm.8433658 0 2.3971435-2.3750696 1.2481814 1.2366878-2.395159 2.3770357z"/><path d="m59.8948507 32.7340028c-.117079.1160009-.117079.3027821 0 .418783l1.672841 1.6535046c.0575473.0589835.1349385.0884752.2103454.0884752.0773912 0 .152798-.0294917.2123297-.0884752.1170791-.116001.1170791-.300816 0-.4168169l-1.6728409-1.6554707c-.0595318-.0589835-.1349386-.0865091-.2123298-.0865091-.0754068 0-.1508137.0275256-.2103454.0865091"/><path d="m68.6083083 20.4438041c-.2162985.2143068-.3373463.4974276-.3373463.8002097 0 .302782.1210478.587869.3373463.8021758.2222517.218239.5159415.3283416.8076468.3283416.2917054 0 .5834108-.1101026.8076469-.3303077.4464878-.4423764.4464878-1.1619753 0-1.6023855-.2143142-.2143068-.5040352-.3303077-.8076469-.3303077-.3075805 0-.5933327.117967-.8076468.3322738m.4226751 1.1816364c-.1031883-.1002719-.1607356-.235934-.1607356-.3814267 0-.1454927.0555629-.2791886.1607356-.3833929.1012039-.1022381.2381268-.1592555.3849717-.1592555.1448605 0 .2817834.0570174.3849717.1592555.2143142.2123407.2143142.552479 0 .7648196-.107157.1061704-.2460644.1592555-.3849717.1592555-.1389073 0-.279799-.0530851-.3849717-.1592555"/><path d="m53.7928507 26.0059497-5.3538848 5.3124487c-.1170791.1160009-.1170791.3008159 0 .418783.0575473.0570174.1349385.084543.2103453.084543.0773912 0 .1527981-.0275256.2103454-.084543l5.3538849-5.3144149c.117079-.1140348.117079-.302782 0-.4168168-.0575474-.0589835-.1349386-.0865092-.2103454-.0865092-.0773912 0-.1527981.0275257-.2103454.0865092"/><path d="m58.8570146 33.7622821c-.117079.117967-.117079.3047482 0 .4207491l1.6708566 1.6535046c.0595317.0589835.1349386.0865091.2123298.0865091.0773912 0 .152798-.0275256.2103453-.0865091.1170791-.1140348.1170791-.3027821 0-.4168169l-1.6708565-1.6574368c-.0595318-.0570174-.136923-.084543-.2123298-.084543-.0773912 0-.152798.0275256-.2103454.084543"/><path d="m14.2731237 64.4978061c-.8552722 0-1.5240117-.2241374-1.9685151-.7058361-2.5856605-2.7938525 4.2981893-11.6256511 8.6301132-16.6412161.2162985-.2496969.5913482-.2772225.8413814-.0648819.2500332.2123407.279799.585903.0654849.8336337-7.5386985 8.7275944-9.7790751 13.8591603-8.6578946 15.0722546.7699434.8316676 3.8616234.3480028 10.2315161-3.505587 5.7944195-3.505587 12.8985365-8.9438672 20.0066224-15.3101547.2460644-.2182391.6230985-.200544.8433659.0412884.2222517.2418324.2024078.6173608-.0416722.8355998-11.5590732 10.3575055-24.5250791 19.4448993-29.950402 19.4448993" fill="#ee4a4a"/></g></g><path d="m56.3066245 112.551587c-31.0968743 0-56.3066245-25.1515605-56.3066245-56.1766565 0-31.0250961 25.2097502-56.17665685 56.3066245-56.17665685 31.0976779 0 56.3066245 25.15156075 56.3066245 56.17665685 0 31.025096-25.2089466 56.1766565-56.3066245 56.1766565z" fill="#e6e6e6" fill-opacity=".5" transform="translate(532 41)"/><g transform="translate(550.984 45.484127)"><path d="m6.97824561 1.40286431v6.46739667 89.73037492h71.78917329v-81.4057683h-14.8854655v-14.79200329z" fill="#f7f7f7"/><path d="m33.7776013 32.2478203-8.6559171 36.4540576h9.8707827l.9617685-6.3809917h7.491671l.9607562 6.3809917h10.0236532l-7.8875146-32.6442512-4.6741953-3.8098064zm5.8718502 7.4552121h.1012388l2.5815893 15.4699993h-5.2644174z" fill="#f4a6ac"/><path d="m41.8694737 29.443662 4.1869474 4.2062374-.8243308-4.2062374z" fill="#f4a6ac"/><path d="m.45593216 13.7357207h11.99232254l-11.99232254-12.60188734z" fill="#fff" transform="translate(65.595509 2.804158)"/><path d="m1.95046842 97.5857881v-95.62356477h59.87157858v14.81182377c0 .5414653.4369049.9809155.9752342.9809155h14.8040553v79.8308255zm61.82204698-94.24439761 12.4420381 12.45174111h-12.4420381zm15.6447072 13.02067211c-.0487617-.0980916-.0741178-.2040304-.1521365-.2844655l-15.7792895-15.79273924c-.1852945-.18441211-.433004-.24719071-.6846144-.24719071v-.03727478h-62.8011822v99.54722663h79.551805v-83.1855564z" fill="url(#b)"/></g></g></svg>